# 3ds Max Wavefront OBJ Exporter v0.97b - (c)2007 guruware
# File Created: 14.04.2011 01:04:38

#
# object Spiderweb_04
#

v  -15.6048 15.2340 -69.8197
v  -10.9307 15.2340 -39.2878
v  -15.2437 -1.3261 -69.8197
v  -10.8970 16.7556 -58.7063
v  -10.6817 6.9539 -58.7062
v  -28.4399 16.3647 -73.4957
v  -10.6437 16.3647 -57.1238
v  -15.1729 -16.7556 -70.3544
v  -15.6620 16.3647 -69.6474
v  -22.9095 -0.1954 -76.1498
v  -9.6534 -0.1954 -63.5976
v  -15.7722 -0.1954 -69.7285
v  -9.0754 -11.1807 -66.9106
v  -19.0412 -9.6965 -75.7590
# 14 vertices

vn -0.9998 -0.0220 -0.0035
vn -0.9804 -0.0215 0.1959
vn -0.9657 -0.0212 0.2587
vn -0.9196 -0.0201 0.3924
vn -0.9657 -0.0212 0.2587
vn -0.9804 -0.0215 0.1959
vn -0.9804 -0.0215 0.1959
vn -0.9196 -0.0201 0.3923
vn -0.9196 -0.0201 0.3924
vn -0.2798 -0.2423 0.9290
vn -0.5804 -0.1598 0.7985
vn -0.6759 -0.1623 0.7189
vn -0.6847 -0.0861 0.7237
vn -0.6550 -0.0522 0.7539
vn -0.5321 -0.1090 0.8396
vn -0.5321 -0.1090 0.8396
vn -0.7610 -0.1531 0.6304
vn -0.6847 -0.0861 0.7237
vn -0.6847 -0.0861 0.7237
vn -0.5804 -0.1598 0.7985
vn -0.7870 -0.1141 0.6064
vn -0.7870 -0.1141 0.6064
vn -0.6550 -0.0522 0.7539
vn -0.6847 -0.0861 0.7237
vn -0.7610 -0.1531 0.6304
vn -0.6759 -0.1623 0.7189
vn -0.6847 -0.0861 0.7237
vn -0.5804 -0.1598 0.7985
vn -0.6847 -0.0861 0.7237
vn -0.6759 -0.1623 0.7189
vn -0.7610 -0.1531 0.6304
vn -0.9101 -0.1970 0.3647
vn -0.6759 -0.1623 0.7189
# 33 vertex normals

vt 0.9885 0.9810 0.0000
vt 0.9885 0.0359 0.0000
vt 0.5159 0.9810 0.0000
vt 0.9885 0.5085 0.0000
vt 0.7522 0.5085 0.0000
vt 0.9661 0.0242 0.0000
vt 0.0462 0.0242 0.0000
vt 0.5062 0.9440 0.0000
vt 0.5062 0.0242 0.0000
vt 0.7361 0.4841 0.0000
vt 0.2716 0.4866 0.0000
vt 0.5062 0.4841 0.0000
vt 0.3689 0.7151 0.0000
vt 0.6211 0.7140 0.0000
# 14 texture coords

g Spiderweb_04
s 1
f 2/2/1 4/4/2 5/5/3 
f 3/3/4 5/5/5 4/4/6 
f 4/4/7 1/1/8 3/3/9 
f 6/6/10 10/10/11 9/9/12 
f 12/12/13 8/8/14 13/13/15 
f 13/13/16 11/11/17 12/12/18 
f 12/12/19 10/10/20 14/14/21 
f 14/14/22 8/8/23 12/12/24 
f 11/11/25 9/9/26 12/12/27 
f 10/10/28 12/12/29 9/9/30 
f 11/11/31 7/7/32 9/9/33 
# 11 faces

