# 3ds Max Wavefront OBJ Exporter v0.97b - (c)2007 guruware
# File Created: 14.04.2011 01:04:11

#
# object Spiderweb_03
#

v  -11.3485 -18.4042 44.0227
v  -11.3485 16.3289 41.8268
v  -11.3485 18.4042 24.8311
v  -10.5167 0.5819 30.1692
# 4 vertices

vn -0.9991 -0.0307 -0.0298
vn -0.9988 -0.0484 -0.0059
vn -0.9988 -0.0188 -0.0459
vn -0.9991 -0.0307 -0.0298
vn -0.9988 -0.0188 -0.0459
vn -0.9978 -0.0041 -0.0656
# 6 vertex normals

vt 0.0162 0.0232 0.0000
vt 0.0162 0.9860 0.0000
vt 0.4976 0.9860 0.0000
vt 0.2569 0.5046 0.0000
# 4 texture coords

g Spiderweb_03
s 1
f 2/2/1 3/3/2 4/4/3 
f 2/2/4 4/4/5 1/1/6 
# 2 faces

