# 3ds Max Wavefront OBJ Exporter v0.97b - (c)2007 guruware
# File Created: 14.04.2011 01:04:20

#
# object Spiderweb_01
#

v  -7.2990 17.4684 3.8146
v  -17.0772 -11.5121 3.0483
v  -7.9083 -12.4579 19.3589
v  -17.4907 -17.4684 11.6559
# 4 vertices

vn -0.9350 0.3110 0.1703
vn -0.8179 0.3424 0.4624
vn -0.8158 0.3426 0.4659
vn -0.8158 0.3426 0.4659
vn -0.8179 0.3424 0.4624
vn -0.6910 0.3442 0.6356
# 6 vertex normals

vt 0.0162 0.0232 0.0000
vt 0.0162 0.9860 0.0000
vt 0.4976 0.9860 0.0000
vt 0.2569 0.9860 0.0000
# 4 texture coords

g Spiderweb_01
s 1
f 2/2/1 4/4/2 1/1/3 
f 1/1/4 4/4/5 3/3/6 
# 2 faces

