# 3ds Max Wavefront OBJ Exporter v0.97b - (c)2007 guruware
# File Created: 11.04.2011 12:18:45

#
# object Floor_Variation_Small_02_01
#

v  39.3700 0.0000 39.3701
v  39.3700 0.0000 0.0000
v  -0.0001 0.0000 39.3701
v  -0.0001 0.0000 -0.0000
# 4 vertices

vn 0.0000 1.0000 -0.0000
vn 0.0000 1.0000 -0.0000
vn 0.0000 1.0000 -0.0000
vn 0.0000 1.0000 -0.0000
vn 0.0000 1.0000 -0.0000
vn 0.0000 1.0000 -0.0000
# 6 vertex normals

vt 0.9982 0.9982 0.0000
vt -0.0000 0.9982 0.0000
vt 0.9982 0.0000 0.0000
vt 0.0000 -0.0000 0.0000
# 4 texture coords

g Floor_Variation_Small_02_01
s 1
f 3/3/1 1/1/2 2/2/3 
f 2/2/4 4/4/5 3/3/6 
# 2 faces

