# 3ds Max Wavefront OBJ Exporter v0.97b - (c)2007 guruware
# File Created: 14.04.2011 00:34:20

#
# object Chain_Head
#

v  0.0000 -3.0061 -2.3076
v  0.0000 -3.0061 2.3038
v  0.0000 3.0567 -2.3076
v  0.0000 3.0567 2.3038
v  -1.0757 2.5111 -1.7356
v  -1.0757 -2.4935 -1.7356
v  -1.0757 -2.4935 1.7318
v  -1.0757 2.5111 1.7318
v  -0.6406 1.5456 -0.0000
v  -0.6406 1.1756 0.3700
v  -0.6406 0.8056 -0.0000
v  -0.6406 1.1756 -0.3701
v  -1.8895 1.5456 -0.0000
v  -1.8147 1.1756 0.3700
v  -1.7399 0.8056 -0.0000
v  -1.8147 1.1756 -0.3701
v  -2.9215 1.1103 -0.0000
v  -2.6374 0.8286 0.3700
v  -2.3532 0.5469 -0.0000
v  -2.6374 0.8286 -0.3701
v  -3.3786 0.0000 -0.0000
v  -2.9785 0.0000 0.3700
v  -2.5784 0.0000 -0.0000
v  -2.9785 0.0000 -0.3701
v  -2.9215 -1.1103 -0.0000
v  -2.6374 -0.8285 0.3700
v  -2.3532 -0.5468 -0.0000
v  -2.6374 -0.8285 -0.3701
v  -1.8895 -1.5455 -0.0000
v  -1.8147 -1.1755 0.3700
v  -1.7399 -0.8055 -0.0000
v  -1.8147 -1.1755 -0.3701
v  -0.7198 -1.5455 -0.0000
v  -0.7198 -1.1755 0.3700
v  -0.7198 -0.8055 -0.0000
v  -0.7198 -1.1755 -0.3701
v  -1.6897 -2.6157 3.1476
v  -2.3984 -2.6157 2.4547
v  -1.6897 -2.6157 1.7475
v  -0.9810 -2.6157 2.4547
v  -1.6897 -1.0335 2.7191
v  -2.3984 -1.3810 2.1202
v  -1.6897 -1.7345 1.5087
v  -0.9810 -1.3810 2.1202
v  -1.6897 0.0979 1.5877
v  -2.3984 -0.5010 1.2402
v  -1.6897 -1.1125 0.8867
v  -0.9810 -0.5010 1.2402
v  -1.6897 0.5264 0.0054
v  -2.3984 -0.1664 0.0054
v  -1.6897 -0.8737 0.0054
v  -0.9810 -0.1664 0.0054
v  -1.6897 0.0979 -1.5768
v  -2.3984 -0.5010 -1.2293
v  -1.6897 -1.1125 -0.8758
v  -0.9810 -0.5010 -1.2293
v  -1.6897 -1.0335 -2.7082
v  -2.3984 -1.3810 -2.1093
v  -1.6897 -1.7345 -1.4979
v  -0.9810 -1.3810 -2.1093
v  -1.6897 -2.6157 -3.1367
v  -2.3984 -2.6157 -2.4438
v  -1.6897 -2.6157 -1.7366
v  -0.9810 -2.6157 -2.4438
v  -1.6897 -4.1980 -2.7082
v  -2.3984 -3.8505 -2.1093
v  -1.6897 -3.4970 -1.4979
v  -0.9810 -3.8505 -2.1093
v  -1.6897 -5.3294 -1.5768
v  -2.3984 -4.7305 -1.2293
v  -1.6897 -4.1190 -0.8758
v  -0.9810 -4.7305 -1.2293
v  -1.6897 -5.7579 0.0054
v  -2.3984 -5.0650 0.0054
v  -1.6897 -4.3578 0.0054
v  -0.9810 -5.0650 0.0054
v  -1.6897 -5.3294 1.5877
v  -2.3984 -4.7305 1.2402
v  -1.6897 -4.1190 0.8867
v  -0.9810 -4.7305 1.2402
v  -1.6897 -4.1980 2.7191
v  -2.3984 -3.8505 2.1202
v  -1.6897 -3.4970 1.5087
v  -0.9810 -3.8505 2.1202
# 84 vertices

vn -0.8000 -0.4334 -0.4149
vn -0.8000 -0.4334 0.4149
vn -0.8054 0.4233 0.4149
vn -0.8054 0.4233 0.4149
vn -0.8054 0.4233 -0.4149
vn -0.8000 -0.4334 -0.4149
vn -0.5915 0.5671 -0.5732
vn -0.5813 -0.5702 -0.5805
vn -0.8000 -0.4334 -0.4149
vn -0.8000 -0.4334 -0.4149
vn -0.8054 0.4233 -0.4149
vn -0.5915 0.5671 -0.5732
vn -0.5813 -0.5702 -0.5805
vn -0.5813 -0.5702 0.5805
vn -0.8000 -0.4334 0.4149
vn -0.8000 -0.4334 0.4149
vn -0.8000 -0.4334 -0.4149
vn -0.5813 -0.5702 -0.5805
vn -0.5813 -0.5702 0.5805
vn -0.5915 0.5671 0.5732
vn -0.8054 0.4233 0.4149
vn -0.8054 0.4233 0.4149
vn -0.8000 -0.4334 0.4149
vn -0.5813 -0.5702 0.5805
vn -0.5915 0.5671 0.5732
vn -0.5915 0.5671 -0.5732
vn -0.8054 0.4233 -0.4149
vn -0.8054 0.4233 -0.4149
vn -0.8054 0.4233 0.4149
vn -0.5915 0.5671 0.5732
vn -0.0175 0.0866 0.9961
vn 0.0000 0.0000 1.0000
vn 0.0000 1.0000 -0.0000
vn 0.0000 1.0000 -0.0000
vn -0.1984 0.9801 -0.0000
vn -0.0175 0.0866 0.9961
vn 0.1984 -0.9801 -0.0000
vn 0.0000 -1.0000 -0.0000
vn 0.0000 0.0000 1.0000
vn 0.0000 0.0000 1.0000
vn -0.0175 0.0866 0.9961
vn 0.1984 -0.9801 -0.0000
vn -0.0175 0.0866 -0.9961
vn 0.0000 0.0000 -1.0000
vn 0.0000 -1.0000 -0.0000
vn 0.0000 -1.0000 -0.0000
vn 0.1984 -0.9801 -0.0000
vn -0.0175 0.0866 -0.9961
vn -0.1984 0.9801 -0.0000
vn 0.0000 1.0000 -0.0000
vn 0.0000 0.0000 -1.0000
vn 0.0000 0.0000 -1.0000
vn -0.0175 0.0866 -0.9961
vn -0.1984 0.9801 -0.0000
vn -0.1167 0.1158 0.9864
vn -0.0175 0.0866 0.9961
vn -0.1984 0.9801 -0.0000
vn -0.1984 0.9801 -0.0000
vn -0.7102 0.7040 -0.0000
vn -0.1167 0.1158 0.9864
vn 0.7102 -0.7040 -0.0000
vn 0.1984 -0.9801 -0.0000
vn -0.0175 0.0866 0.9961
vn -0.0175 0.0866 0.9961
vn -0.1167 0.1158 0.9864
vn 0.7102 -0.7040 -0.0000
vn -0.1167 0.1158 -0.9864
vn -0.0175 0.0866 -0.9961
vn 0.1984 -0.9801 -0.0000
vn 0.1984 -0.9801 -0.0000
vn 0.7102 -0.7040 -0.0000
vn -0.1167 0.1158 -0.9864
vn -0.7102 0.7040 -0.0000
vn -0.1984 0.9801 -0.0000
vn -0.0175 0.0866 -0.9961
vn -0.0175 0.0866 -0.9961
vn -0.1167 0.1158 -0.9864
vn -0.7102 0.7040 -0.0000
vn -0.1640 0.0000 0.9865
vn -0.1167 0.1158 0.9864
vn -0.7102 0.7040 -0.0000
vn -0.7102 0.7040 -0.0000
vn -1.0000 0.0000 -0.0000
vn -0.1640 0.0000 0.9865
vn 1.0000 0.0000 -0.0000
vn 0.7102 -0.7040 -0.0000
vn -0.1167 0.1158 0.9864
vn -0.1167 0.1158 0.9864
vn -0.1640 0.0000 0.9865
vn 1.0000 0.0000 -0.0000
vn -0.1640 0.0000 -0.9865
vn -0.1167 0.1158 -0.9864
vn 0.7102 -0.7040 -0.0000
vn 0.7102 -0.7040 -0.0000
vn 1.0000 0.0000 -0.0000
vn -0.1640 0.0000 -0.9865
vn -1.0000 0.0000 -0.0000
vn -0.7102 0.7040 -0.0000
vn -0.1167 0.1158 -0.9864
vn -0.1167 0.1158 -0.9864
vn -0.1640 0.0000 -0.9865
vn -1.0000 0.0000 -0.0000
vn -0.1167 -0.1158 0.9864
vn -0.1640 0.0000 0.9865
vn -1.0000 0.0000 -0.0000
vn -1.0000 0.0000 -0.0000
vn -0.7102 -0.7040 -0.0000
vn -0.1167 -0.1158 0.9864
vn 0.7102 0.7040 -0.0000
vn 1.0000 0.0000 -0.0000
vn -0.1640 0.0000 0.9865
vn -0.1640 0.0000 0.9865
vn -0.1167 -0.1158 0.9864
vn 0.7102 0.7040 -0.0000
vn -0.1167 -0.1158 -0.9864
vn -0.1640 0.0000 -0.9865
vn 1.0000 0.0000 -0.0000
vn 1.0000 0.0000 -0.0000
vn 0.7102 0.7040 -0.0000
vn -0.1167 -0.1158 -0.9864
vn -0.7102 -0.7040 -0.0000
vn -1.0000 0.0000 -0.0000
vn -0.1640 0.0000 -0.9865
vn -0.1640 0.0000 -0.9865
vn -0.1167 -0.1158 -0.9864
vn -0.7102 -0.7040 -0.0000
vn -0.0175 -0.0868 0.9961
vn -0.1167 -0.1158 0.9864
vn -0.7102 -0.7040 -0.0000
vn -0.7102 -0.7040 -0.0000
vn -0.1984 -0.9801 -0.0000
vn -0.0175 -0.0868 0.9961
vn 0.1984 0.9801 -0.0000
vn 0.7102 0.7040 -0.0000
vn -0.1167 -0.1158 0.9864
vn -0.1167 -0.1158 0.9864
vn -0.0175 -0.0868 0.9961
vn 0.1984 0.9801 -0.0000
vn -0.0175 -0.0868 -0.9961
vn -0.1167 -0.1158 -0.9864
vn 0.7102 0.7040 -0.0000
vn 0.7102 0.7040 -0.0000
vn 0.1984 0.9801 -0.0000
vn -0.0175 -0.0868 -0.9961
vn -0.1984 -0.9801 -0.0000
vn -0.7102 -0.7040 -0.0000
vn -0.1167 -0.1158 -0.9864
vn -0.1167 -0.1158 -0.9864
vn -0.0175 -0.0868 -0.9961
vn -0.1984 -0.9801 -0.0000
vn 0.0000 0.0000 1.0000
vn -0.0175 -0.0868 0.9961
vn -0.1984 -0.9801 -0.0000
vn -0.1984 -0.9801 -0.0000
vn 0.0000 -1.0000 -0.0000
vn 0.0000 0.0000 1.0000
vn 0.0000 1.0000 -0.0000
vn 0.1984 0.9801 -0.0000
vn -0.0175 -0.0868 0.9961
vn -0.0175 -0.0868 0.9961
vn 0.0000 0.0000 1.0000
vn 0.0000 1.0000 -0.0000
vn 0.0000 0.0000 -1.0000
vn -0.0175 -0.0868 -0.9961
vn 0.1984 0.9801 -0.0000
vn 0.1984 0.9801 -0.0000
vn 0.0000 1.0000 -0.0000
vn 0.0000 0.0000 -1.0000
vn 0.0000 -1.0000 -0.0000
vn -0.1984 -0.9801 -0.0000
vn -0.0175 -0.0868 -0.9961
vn -0.0175 -0.0868 -0.9961
vn 0.0000 0.0000 -1.0000
vn 0.0000 -1.0000 -0.0000
vn -0.9927 0.0607 0.1038
vn -0.9925 0.0000 0.1221
vn 0.0000 0.0000 1.0000
vn 0.0000 0.0000 1.0000
vn 0.0000 0.5005 0.8657
vn -0.9927 0.0607 0.1038
vn 0.0000 -0.5005 -0.8657
vn 0.0000 0.0000 -1.0000
vn -0.9925 0.0000 0.1221
vn -0.9925 0.0000 0.1221
vn -0.9927 0.0607 0.1038
vn 0.0000 -0.5005 -0.8657
vn 0.9927 0.0607 0.1038
vn 0.9925 0.0000 0.1221
vn 0.0000 0.0000 -1.0000
vn 0.0000 0.0000 -1.0000
vn 0.0000 -0.5005 -0.8657
vn 0.9927 0.0607 0.1038
vn 0.0000 0.5005 0.8657
vn 0.0000 0.0000 1.0000
vn 0.9925 0.0000 0.1221
vn 0.9925 0.0000 0.1221
vn 0.9927 0.0607 0.1038
vn 0.0000 0.5005 0.8657
vn -0.9926 0.1049 0.0610
vn -0.9927 0.0607 0.1038
vn 0.0000 0.5005 0.8657
vn 0.0000 0.5005 0.8657
vn 0.0000 0.8657 0.5006
vn -0.9926 0.1049 0.0610
vn 0.0000 -0.8657 -0.5006
vn 0.0000 -0.5005 -0.8657
vn -0.9927 0.0607 0.1038
vn -0.9927 0.0607 0.1038
vn -0.9926 0.1049 0.0610
vn 0.0000 -0.8657 -0.5006
vn 0.9926 0.1049 0.0610
vn 0.9927 0.0607 0.1038
vn 0.0000 -0.5005 -0.8657
vn 0.0000 -0.5005 -0.8657
vn 0.0000 -0.8657 -0.5006
vn 0.9926 0.1049 0.0610
vn 0.0000 0.8657 0.5006
vn 0.0000 0.5005 0.8657
vn 0.9927 0.0607 0.1038
vn 0.9927 0.0607 0.1038
vn 0.9926 0.1049 0.0610
vn 0.0000 0.8657 0.5006
vn -0.9924 0.1232 -0.0000
vn -0.9926 0.1049 0.0610
vn 0.0000 0.8657 0.5006
vn 0.0000 0.8657 0.5006
vn 0.0000 1.0000 -0.0000
vn -0.9924 0.1232 -0.0000
vn 0.0000 -1.0000 -0.0000
vn 0.0000 -0.8657 -0.5006
vn -0.9926 0.1049 0.0610
vn -0.9926 0.1049 0.0610
vn -0.9924 0.1232 -0.0000
vn 0.0000 -1.0000 -0.0000
vn 0.9924 0.1232 -0.0000
vn 0.9926 0.1049 0.0610
vn 0.0000 -0.8657 -0.5006
vn 0.0000 -0.8657 -0.5006
vn 0.0000 -1.0000 -0.0000
vn 0.9924 0.1232 -0.0000
vn 0.0000 1.0000 -0.0000
vn 0.0000 0.8657 0.5006
vn 0.9926 0.1049 0.0610
vn 0.9926 0.1049 0.0610
vn 0.9924 0.1232 -0.0000
vn 0.0000 1.0000 -0.0000
vn -0.9926 0.1049 -0.0610
vn -0.9924 0.1232 -0.0000
vn 0.0000 1.0000 -0.0000
vn 0.0000 1.0000 -0.0000
vn 0.0000 0.8657 -0.5006
vn -0.9926 0.1049 -0.0610
vn 0.0000 -0.8657 0.5006
vn 0.0000 -1.0000 -0.0000
vn -0.9924 0.1232 -0.0000
vn -0.9924 0.1232 -0.0000
vn -0.9926 0.1049 -0.0610
vn 0.0000 -0.8657 0.5006
vn 0.9926 0.1049 -0.0610
vn 0.9924 0.1232 -0.0000
vn 0.0000 -1.0000 -0.0000
vn 0.0000 -1.0000 -0.0000
vn 0.0000 -0.8657 0.5006
vn 0.9926 0.1049 -0.0610
vn 0.0000 0.8657 -0.5006
vn 0.0000 1.0000 -0.0000
vn 0.9924 0.1232 -0.0000
vn 0.9924 0.1232 -0.0000
vn 0.9926 0.1049 -0.0610
vn 0.0000 0.8657 -0.5006
vn -0.9927 0.0607 -0.1038
vn -0.9926 0.1049 -0.0610
vn 0.0000 0.8657 -0.5006
vn 0.0000 0.8657 -0.5006
vn 0.0000 0.5005 -0.8657
vn -0.9927 0.0607 -0.1038
vn 0.0000 -0.5005 0.8657
vn 0.0000 -0.8657 0.5006
vn -0.9926 0.1049 -0.0610
vn -0.9926 0.1049 -0.0610
vn -0.9927 0.0607 -0.1038
vn 0.0000 -0.5005 0.8657
vn 0.9927 0.0607 -0.1038
vn 0.9926 0.1049 -0.0610
vn 0.0000 -0.8657 0.5006
vn 0.0000 -0.8657 0.5006
vn 0.0000 -0.5005 0.8657
vn 0.9927 0.0607 -0.1038
vn 0.0000 0.5005 -0.8657
vn 0.0000 0.8657 -0.5006
vn 0.9926 0.1049 -0.0610
vn 0.9926 0.1049 -0.0610
vn 0.9927 0.0607 -0.1038
vn 0.0000 0.5005 -0.8657
vn -0.9925 0.0000 -0.1221
vn -0.9927 0.0607 -0.1038
vn 0.0000 0.5005 -0.8657
vn 0.0000 0.5005 -0.8657
vn 0.0000 0.0000 -1.0000
vn -0.9925 0.0000 -0.1221
vn 0.0000 0.0000 1.0000
vn 0.0000 -0.5005 0.8657
vn -0.9927 0.0607 -0.1038
vn -0.9927 0.0607 -0.1038
vn -0.9925 0.0000 -0.1221
vn 0.0000 0.0000 1.0000
vn 0.9925 0.0000 -0.1221
vn 0.9927 0.0607 -0.1038
vn 0.0000 -0.5005 0.8657
vn 0.0000 -0.5005 0.8657
vn 0.0000 0.0000 1.0000
vn 0.9925 0.0000 -0.1221
vn 0.0000 0.0000 -1.0000
vn 0.0000 0.5005 -0.8657
vn 0.9927 0.0607 -0.1038
vn 0.9927 0.0607 -0.1038
vn 0.9925 0.0000 -0.1221
vn 0.0000 0.0000 -1.0000
vn -0.9927 -0.0609 -0.1038
vn -0.9925 0.0000 -0.1221
vn 0.0000 0.0000 -1.0000
vn 0.0000 0.0000 -1.0000
vn 0.0000 -0.5005 -0.8657
vn -0.9927 -0.0609 -0.1038
vn 0.0000 0.5005 0.8657
vn 0.0000 0.0000 1.0000
vn -0.9925 0.0000 -0.1221
vn -0.9925 0.0000 -0.1221
vn -0.9927 -0.0609 -0.1038
vn 0.0000 0.5005 0.8657
vn 0.9927 -0.0609 -0.1038
vn 0.9925 0.0000 -0.1221
vn 0.0000 0.0000 1.0000
vn 0.0000 0.0000 1.0000
vn 0.0000 0.5005 0.8657
vn 0.9927 -0.0609 -0.1038
vn 0.0000 -0.5005 -0.8657
vn 0.0000 0.0000 -1.0000
vn 0.9925 0.0000 -0.1221
vn 0.9925 0.0000 -0.1221
vn 0.9927 -0.0609 -0.1038
vn 0.0000 -0.5005 -0.8657
vn -0.9926 -0.1051 -0.0610
vn -0.9927 -0.0609 -0.1038
vn 0.0000 -0.5005 -0.8657
vn 0.0000 -0.5005 -0.8657
vn 0.0000 -0.8657 -0.5006
vn -0.9926 -0.1051 -0.0610
vn 0.0000 0.8657 0.5005
vn 0.0000 0.5005 0.8657
vn -0.9927 -0.0609 -0.1038
vn -0.9927 -0.0609 -0.1038
vn -0.9926 -0.1051 -0.0610
vn 0.0000 0.8657 0.5005
vn 0.9926 -0.1051 -0.0610
vn 0.9927 -0.0609 -0.1038
vn 0.0000 0.5005 0.8657
vn 0.0000 0.5005 0.8657
vn 0.0000 0.8657 0.5005
vn 0.9926 -0.1051 -0.0610
vn 0.0000 -0.8657 -0.5006
vn 0.0000 -0.5005 -0.8657
vn 0.9927 -0.0609 -0.1038
vn 0.9927 -0.0609 -0.1038
vn 0.9926 -0.1051 -0.0610
vn 0.0000 -0.8657 -0.5006
vn -0.9924 -0.1232 -0.0000
vn -0.9926 -0.1051 -0.0610
vn 0.0000 -0.8657 -0.5006
vn 0.0000 -0.8657 -0.5006
vn 0.0000 -1.0000 -0.0000
vn -0.9924 -0.1232 -0.0000
vn 0.0000 1.0000 -0.0000
vn 0.0000 0.8657 0.5005
vn -0.9926 -0.1051 -0.0610
vn -0.9926 -0.1051 -0.0610
vn -0.9924 -0.1232 -0.0000
vn 0.0000 1.0000 -0.0000
vn 0.9924 -0.1232 -0.0000
vn 0.9926 -0.1051 -0.0610
vn 0.0000 0.8657 0.5005
vn 0.0000 0.8657 0.5005
vn 0.0000 1.0000 -0.0000
vn 0.9924 -0.1232 -0.0000
vn 0.0000 -1.0000 -0.0000
vn 0.0000 -0.8657 -0.5006
vn 0.9926 -0.1051 -0.0610
vn 0.9926 -0.1051 -0.0610
vn 0.9924 -0.1232 -0.0000
vn 0.0000 -1.0000 -0.0000
vn -0.9926 -0.1051 0.0610
vn -0.9924 -0.1232 -0.0000
vn 0.0000 -1.0000 -0.0000
vn 0.0000 -1.0000 -0.0000
vn 0.0000 -0.8657 0.5006
vn -0.9926 -0.1051 0.0610
vn 0.0000 0.8657 -0.5005
vn 0.0000 1.0000 -0.0000
vn -0.9924 -0.1232 -0.0000
vn -0.9924 -0.1232 -0.0000
vn -0.9926 -0.1051 0.0610
vn 0.0000 0.8657 -0.5005
vn 0.9926 -0.1051 0.0610
vn 0.9924 -0.1232 -0.0000
vn 0.0000 1.0000 -0.0000
vn 0.0000 1.0000 -0.0000
vn 0.0000 0.8657 -0.5005
vn 0.9926 -0.1051 0.0610
vn 0.0000 -0.8657 0.5006
vn 0.0000 -1.0000 -0.0000
vn 0.9924 -0.1232 -0.0000
vn 0.9924 -0.1232 -0.0000
vn 0.9926 -0.1051 0.0610
vn 0.0000 -0.8657 0.5006
vn -0.9927 -0.0609 0.1038
vn -0.9926 -0.1051 0.0610
vn 0.0000 -0.8657 0.5006
vn 0.0000 -0.8657 0.5006
vn 0.0000 -0.5005 0.8657
vn -0.9927 -0.0609 0.1038
vn 0.0000 0.5005 -0.8657
vn 0.0000 0.8657 -0.5005
vn -0.9926 -0.1051 0.0610
vn -0.9926 -0.1051 0.0610
vn -0.9927 -0.0609 0.1038
vn 0.0000 0.5005 -0.8657
vn 0.9927 -0.0609 0.1038
vn 0.9926 -0.1051 0.0610
vn 0.0000 0.8657 -0.5005
vn 0.0000 0.8657 -0.5005
vn 0.0000 0.5005 -0.8657
vn 0.9927 -0.0609 0.1038
vn 0.0000 -0.5005 0.8657
vn 0.0000 -0.8657 0.5006
vn 0.9926 -0.1051 0.0610
vn 0.9926 -0.1051 0.0610
vn 0.9927 -0.0609 0.1038
vn 0.0000 -0.5005 0.8657
vn -0.9925 0.0000 0.1221
vn -0.9927 -0.0609 0.1038
vn 0.0000 -0.5005 0.8657
vn 0.0000 -0.5005 0.8657
vn 0.0000 0.0000 1.0000
vn -0.9925 0.0000 0.1221
vn 0.0000 0.0000 -1.0000
vn 0.0000 0.5005 -0.8657
vn -0.9927 -0.0609 0.1038
vn -0.9927 -0.0609 0.1038
vn -0.9925 0.0000 0.1221
vn 0.0000 0.0000 -1.0000
vn 0.9925 0.0000 0.1221
vn 0.9927 -0.0609 0.1038
vn 0.0000 0.5005 -0.8657
vn 0.0000 0.5005 -0.8657
vn 0.0000 0.0000 -1.0000
vn 0.9925 0.0000 0.1221
vn 0.0000 0.0000 1.0000
vn 0.0000 -0.5005 0.8657
vn 0.9927 -0.0609 0.1038
vn 0.9927 -0.0609 0.1038
vn 0.9925 0.0000 0.1221
vn 0.0000 0.0000 1.0000
# 462 vertex normals

vt 0.0799 0.9040 0.0000
vt 0.0800 0.3991 0.0000
vt 0.3538 0.3991 0.0000
vt 0.3539 0.9040 0.0000
vt 0.0091 0.9909 0.0000
vt 0.0092 0.3147 0.0000
vt 0.4246 0.3147 0.0000
vt 0.4247 0.9909 0.0000
vt 0.9971 0.1177 0.0000
vt 0.8880 0.1233 0.0000
vt 0.8826 0.0645 0.0000
vt 0.9971 0.0513 0.0000
vt 0.8757 0.0082 0.0000
vt 0.9971 0.0082 0.0000
vt 0.8842 0.1825 0.0000
vt 0.9971 0.1845 0.0000
vt 0.8006 0.1242 0.0000
vt 0.7968 0.0676 0.0000
vt 0.7928 0.0082 0.0000
vt 0.7987 0.1808 0.0000
vt 0.7117 0.1244 0.0000
vt 0.7107 0.0671 0.0000
vt 0.7097 0.0082 0.0000
vt 0.7127 0.1817 0.0000
vt 0.6227 0.1247 0.0000
vt 0.6246 0.0680 0.0000
vt 0.6267 0.0082 0.0000
vt 0.6266 0.1812 0.0000
vt 0.5353 0.1260 0.0000
vt 0.5392 0.0667 0.0000
vt 0.5439 0.0082 0.0000
vt 0.5408 0.1845 0.0000
vt 0.4341 0.1308 0.0000
vt 0.4341 0.0637 0.0000
vt 0.4341 0.0082 0.0000
vt 0.4341 0.1976 0.0000
vt 0.5728 0.6202 0.0000
vt 0.5728 0.7456 0.0000
vt 0.5033 0.7451 0.0000
vt 0.5035 0.6198 0.0000
vt 0.4334 0.7435 0.0000
vt 0.4334 0.6172 0.0000
vt 0.6423 0.7449 0.0000
vt 0.6421 0.6195 0.0000
vt 0.5728 0.8677 0.0000
vt 0.5033 0.8676 0.0000
vt 0.4334 0.8671 0.0000
vt 0.6423 0.8674 0.0000
vt 0.5728 0.9939 0.0000
vt 0.5034 0.9940 0.0000
vt 0.4334 0.9942 0.0000
vt 0.6422 0.9938 0.0000
vt 0.8580 0.8653 0.0000
vt 0.9275 0.8650 0.0000
vt 0.9975 0.8642 0.0000
vt 0.7885 0.8652 0.0000
vt 0.8580 0.7432 0.0000
vt 0.9275 0.7425 0.0000
vt 0.9975 0.7406 0.0000
vt 0.7885 0.7427 0.0000
vt 0.8580 0.6178 0.0000
vt 0.9273 0.6172 0.0000
vt 0.9975 0.6143 0.0000
vt 0.7887 0.6174 0.0000
vt 0.8579 0.4926 0.0000
vt 0.9269 0.4930 0.0000
vt 0.9975 0.4911 0.0000
vt 0.7890 0.4933 0.0000
vt 0.8577 0.3709 0.0000
vt 0.9281 0.3727 0.0000
vt 0.9975 0.3801 0.0000
vt 0.7875 0.3729 0.0000
vt 0.8574 0.2481 0.0000
vt 0.9391 0.2481 0.0000
vt 0.9975 0.2481 0.0000
vt 0.7757 0.2481 0.0000
vt 0.5725 0.3733 0.0000
vt 0.5023 0.3753 0.0000
vt 0.4334 0.3830 0.0000
vt 0.6429 0.3751 0.0000
vt 0.5727 0.4950 0.0000
vt 0.5038 0.4957 0.0000
vt 0.4334 0.4940 0.0000
vt 0.6417 0.4954 0.0000
vt 0.8798 0.2406 0.0000
vt 0.9971 0.2406 0.0000
vt 0.7967 0.2406 0.0000
vt 0.7136 0.2406 0.0000
vt 0.6306 0.2406 0.0000
vt 0.5479 0.2406 0.0000
vt 0.4341 0.2406 0.0000
vt 0.7123 0.7430 0.0000
vt 0.7123 0.6167 0.0000
vt 0.7123 0.8666 0.0000
vt 0.7123 0.9937 0.0000
vt 0.7186 0.8647 0.0000
vt 0.7186 0.7410 0.0000
vt 0.7186 0.6148 0.0000
vt 0.7186 0.4915 0.0000
vt 0.7186 0.3806 0.0000
vt 0.5721 0.2505 0.0000
vt 0.4904 0.2505 0.0000
vt 0.7186 0.2481 0.0000
vt 0.4334 0.2505 0.0000
vt 0.7123 0.2505 0.0000
vt 0.6538 0.2505 0.0000
vt 0.7123 0.3825 0.0000
vt 0.7123 0.4935 0.0000
vt 0.8580 0.9915 0.0000
vt 0.9274 0.9914 0.0000
vt 0.9975 0.9913 0.0000
vt 0.7886 0.9916 0.0000
vt 0.7186 0.9918 0.0000
# 113 texture coords

g Chain_Head
s 1
f 6/2/1 7/3/2 8/4/3 
f 8/4/4 5/1/5 6/2/6 
f 3/5/7 1/6/8 6/2/9 
f 6/2/10 5/1/11 3/5/12 
f 1/6/13 2/7/14 7/3/15 
f 7/3/16 6/2/17 1/6/18 
f 2/7/19 4/8/20 8/4/21 
f 8/4/22 7/3/23 2/7/24 
f 4/8/25 3/5/26 5/1/27 
f 5/1/28 8/4/29 4/8/30 
f 14/11/31 10/12/32 9/9/33 
f 9/9/34 13/10/35 14/11/36 
f 15/13/37 11/14/38 10/12/39 
f 10/12/40 14/11/41 15/13/42 
f 16/15/43 12/16/44 11/86/45 
f 11/86/46 15/85/47 16/15/48 
f 13/10/49 9/9/50 12/16/51 
f 12/16/52 16/15/53 13/10/54 
f 18/18/55 14/11/56 13/10/57 
f 13/10/58 17/17/59 18/18/60 
f 19/19/61 15/13/62 14/11/63 
f 14/11/64 18/18/65 19/19/66 
f 20/20/67 16/15/68 15/85/69 
f 15/85/70 19/87/71 20/20/72 
f 17/17/73 13/10/74 16/15/75 
f 16/15/76 20/20/77 17/17/78 
f 22/22/79 18/18/80 17/17/81 
f 17/17/82 21/21/83 22/22/84 
f 23/23/85 19/19/86 18/18/87 
f 18/18/88 22/22/89 23/23/90 
f 24/24/91 20/20/92 19/87/93 
f 19/87/94 23/88/95 24/24/96 
f 21/21/97 17/17/98 20/20/99 
f 20/20/100 24/24/101 21/21/102 
f 26/26/103 22/22/104 21/21/105 
f 21/21/106 25/25/107 26/26/108 
f 27/27/109 23/23/110 22/22/111 
f 22/22/112 26/26/113 27/27/114 
f 28/28/115 24/24/116 23/88/117 
f 23/88/118 27/89/119 28/28/120 
f 25/25/121 21/21/122 24/24/123 
f 24/24/124 28/28/125 25/25/126 
f 30/30/127 26/26/128 25/25/129 
f 25/25/130 29/29/131 30/30/132 
f 31/31/133 27/27/134 26/26/135 
f 26/26/136 30/30/137 31/31/138 
f 32/32/139 28/28/140 27/89/141 
f 27/89/142 31/90/143 32/32/144 
f 29/29/145 25/25/146 28/28/147 
f 28/28/148 32/32/149 29/29/150 
f 34/34/151 30/30/152 29/29/153 
f 29/29/154 33/33/155 34/34/156 
f 35/35/157 31/31/158 30/30/159 
f 30/30/160 34/34/161 35/35/162 
f 36/36/163 32/32/164 31/90/165 
f 31/90/166 35/91/167 36/36/168 
f 33/33/169 29/29/170 32/32/171 
f 32/32/172 36/36/173 33/33/174 
f 42/39/175 38/40/176 37/37/177 
f 37/37/178 41/38/179 42/39/180 
f 43/41/181 39/42/182 38/40/183 
f 38/40/184 42/39/185 43/41/186 
f 44/43/187 40/44/188 39/93/189 
f 39/93/190 43/92/191 44/43/192 
f 41/38/193 37/37/194 40/44/195 
f 40/44/196 44/43/197 41/38/198 
f 46/46/199 42/39/200 41/38/201 
f 41/38/202 45/45/203 46/46/204 
f 47/47/205 43/41/206 42/39/207 
f 42/39/208 46/46/209 47/47/210 
f 48/48/211 44/43/212 43/92/213 
f 43/92/214 47/94/215 48/48/216 
f 45/45/217 41/38/218 44/43/219 
f 44/43/220 48/48/221 45/45/222 
f 50/50/223 46/46/224 45/45/225 
f 45/45/226 49/49/227 50/50/228 
f 51/51/229 47/47/230 46/46/231 
f 46/46/232 50/50/233 51/51/234 
f 52/52/235 48/48/236 47/94/237 
f 47/94/238 51/95/239 52/52/240 
f 49/49/241 45/45/242 48/48/243 
f 48/48/244 52/52/245 49/49/246 
f 54/54/247 50/110/248 49/109/249 
f 49/109/250 53/53/251 54/54/252 
f 55/55/253 51/111/254 50/110/255 
f 50/110/256 54/54/257 55/55/258 
f 56/56/259 52/112/260 51/113/261 
f 51/113/262 55/96/263 56/56/264 
f 53/53/265 49/109/266 52/112/267 
f 52/112/268 56/56/269 53/53/270 
f 58/58/271 54/54/272 53/53/273 
f 53/53/274 57/57/275 58/58/276 
f 59/59/277 55/55/278 54/54/279 
f 54/54/280 58/58/281 59/59/282 
f 60/60/283 56/56/284 55/96/285 
f 55/96/286 59/97/287 60/60/288 
f 57/57/289 53/53/290 56/56/291 
f 56/56/292 60/60/293 57/57/294 
f 62/62/295 58/58/296 57/57/297 
f 57/57/298 61/61/299 62/62/300 
f 63/63/301 59/59/302 58/58/303 
f 58/58/304 62/62/305 63/63/306 
f 64/64/307 60/60/308 59/97/309 
f 59/97/310 63/98/311 64/64/312 
f 61/61/313 57/57/314 60/60/315 
f 60/60/316 64/64/317 61/61/318 
f 66/66/319 62/62/320 61/61/321 
f 61/61/322 65/65/323 66/66/324 
f 67/67/325 63/63/326 62/62/327 
f 62/62/328 66/66/329 67/67/330 
f 68/68/331 64/64/332 63/98/333 
f 63/98/334 67/99/335 68/68/336 
f 65/65/337 61/61/338 64/64/339 
f 64/64/340 68/68/341 65/65/342 
f 70/70/343 66/66/344 65/65/345 
f 65/65/346 69/69/347 70/70/348 
f 71/71/349 67/67/350 66/66/351 
f 66/66/352 70/70/353 71/71/354 
f 72/72/355 68/68/356 67/99/357 
f 67/99/358 71/100/359 72/72/360 
f 69/69/361 65/65/362 68/68/363 
f 68/68/364 72/72/365 69/69/366 
f 74/74/367 70/70/368 69/69/369 
f 69/69/370 73/73/371 74/74/372 
f 75/75/373 71/71/374 70/70/375 
f 70/70/376 74/74/377 75/75/378 
f 76/76/379 72/72/380 71/100/381 
f 71/100/382 75/103/383 76/76/384 
f 73/73/385 69/69/386 72/72/387 
f 72/72/388 76/76/389 73/73/390 
f 78/78/391 74/102/392 73/101/393 
f 73/101/394 77/77/395 78/78/396 
f 79/79/397 75/104/398 74/102/399 
f 74/102/400 78/78/401 79/79/402 
f 80/80/403 76/106/404 75/105/405 
f 75/105/406 79/107/407 80/80/408 
f 77/77/409 73/101/410 76/106/411 
f 76/106/412 80/80/413 77/77/414 
f 82/82/415 78/78/416 77/77/417 
f 77/77/418 81/81/419 82/82/420 
f 83/83/421 79/79/422 78/78/423 
f 78/78/424 82/82/425 83/83/426 
f 84/84/427 80/80/428 79/107/429 
f 79/107/430 83/108/431 84/84/432 
f 81/81/433 77/77/434 80/80/435 
f 80/80/436 84/84/437 81/81/438 
f 38/40/439 82/82/440 81/81/441 
f 81/81/442 37/37/443 38/40/444 
f 39/42/445 83/83/446 82/82/447 
f 82/82/448 38/40/449 39/42/450 
f 40/44/451 84/84/452 83/108/453 
f 83/108/454 39/93/455 40/44/456 
f 37/37/457 81/81/458 84/84/459 
f 84/84/460 40/44/461 37/37/462 
# 154 faces

