# 3ds Max Wavefront OBJ Exporter v0.97b - (c)2007 guruware
# File Created: 11.04.2011 12:10:17

#
# object Rubble_01
#

v  2.3133 0.0000 8.9873
v  7.1802 0.0000 4.6647
v  -2.0093 0.0000 4.1204
v  2.8577 0.0000 -0.2022
v  2.3133 1.3036 8.9873
v  7.1802 4.2355 4.6647
v  -2.0093 3.4797 4.1204
v  2.8577 4.2355 -0.2022
v  4.5592 4.2355 7.1028
v  0.5261 4.2690 6.9097
v  2.0556 0.0000 8.9648
v  7.1577 0.0000 4.9224
v  -1.9868 0.0000 3.8627
v  3.1153 0.0000 -0.1797
v  2.1916 1.6780 8.8945
v  2.0556 1.3036 8.9648
v  7.0401 4.4183 4.7823
v  7.1577 4.2355 4.9224
v  -1.8692 3.6625 4.0028
v  -1.9868 3.4797 3.8627
v  2.9752 4.4183 -0.0621
v  3.1153 4.2355 -0.1797
v  4.4417 4.4183 6.9627
v  4.1765 4.2690 7.2290
v  0.3112 4.4183 6.6013
v  0.1711 4.2355 6.7188
v  2.2907 0.2542 -8.0358
v  -3.1499 0.0000 -8.7369
v  0.9540 0.2542 1.0091
v  -4.6929 0.0000 0.0134
v  2.2907 0.8162 -8.0358
v  -3.4003 0.9651 -8.7811
v  0.9540 3.1097 1.0091
v  -4.7370 4.1552 0.2638
v  1.7338 3.2328 -4.8789
v  -3.9631 4.2060 -5.5895
v  2.4969 0.2542 -7.7412
v  2.2466 0.0000 -7.7854
v  -3.4003 0.2542 -8.7811
v  -3.1058 0.2542 -8.9873
v  0.6595 0.2542 1.2153
v  0.7036 0.0000 0.9650
v  -4.7370 0.2542 0.2638
v  -4.9432 0.2542 -0.0307
v  2.2623 1.2466 -7.8552
v  2.4969 0.9355 -7.7412
v  -3.1444 1.2197 -8.7854
v  -3.1058 0.8162 -8.9873
v  0.7077 3.4097 0.9657
v  0.6595 3.1520 1.2153
v  -4.6970 4.4144 0.0127
v  -4.9432 4.2060 -0.0307
v  1.6620 3.4097 -4.4464
v  1.9389 3.1097 -4.5766
v  -3.7427 4.4144 -5.3994
v  -3.6584 4.2636 -5.8526
v  -6.9365 0.1800 2.0441
v  -4.4891 0.0000 5.2255
v  -3.8843 0.1800 1.7955
v  -4.4905 1.6199 5.5373
v  -3.8982 1.7931 1.9758
v  -7.1802 0.2017 1.3971
v  -6.7824 0.1800 1.2844
v  -7.1683 0.0000 1.3992
v  -4.3560 0.1800 5.5075
v  -4.4905 0.1800 5.5373
v  -3.7383 0.1800 2.0040
v  -3.9155 0.0000 1.9727
v  -4.3560 1.6906 5.5075
v  -4.4769 1.7931 5.2578
v  -3.7383 1.6906 2.0040
v  -3.8843 1.5852 1.7955
# 72 vertices

vn -0.3038 0.9101 0.2817
vn 0.0084 0.8803 -0.4743
vn -0.5745 0.8144 -0.0819
vn 0.3007 0.0000 0.9537
vn 0.8870 0.0000 0.4617
vn 0.8245 0.3416 0.4512
vn 0.8245 0.3416 0.4512
vn 0.5081 0.4016 0.7619
vn 0.2775 0.1005 0.9555
vn 0.3007 0.0000 0.9537
vn 0.8245 0.3416 0.4512
vn 0.2775 0.1005 0.9555
vn 0.9537 0.0000 -0.3007
vn 0.4618 0.0000 -0.8870
vn 0.4512 0.3416 -0.8245
vn 0.4512 0.3416 -0.8245
vn 0.8903 0.3416 -0.3011
vn 0.9537 0.0000 -0.3007
vn -0.3007 0.0000 -0.9537
vn -0.8870 0.0000 -0.4617
vn -0.8387 0.3244 -0.4374
vn -0.8387 0.3244 -0.4374
vn -0.3195 0.3585 -0.8772
vn -0.3007 0.0000 -0.9537
vn -0.4618 -0.0000 0.8870
vn -0.4392 0.1005 0.8927
vn -0.6574 0.4253 0.6221
vn -0.9537 -0.0000 0.3007
vn -0.4618 -0.0000 0.8870
vn -0.6574 0.4253 0.6221
vn -0.9537 -0.0000 0.3007
vn -0.6574 0.4253 0.6221
vn -0.9107 0.3097 0.2732
vn -0.0806 0.3816 0.9208
vn 0.1278 0.6536 0.7459
vn -0.2555 0.6536 0.7124
vn 0.2775 0.1005 0.9555
vn -0.0806 0.3816 0.9208
vn -0.4392 0.1005 0.8927
vn 0.8903 0.3416 -0.3011
vn 0.4812 0.8756 0.0421
vn 0.8245 0.3416 0.4512
vn -0.9107 0.3097 0.2732
vn -0.5745 0.8144 -0.0819
vn -0.8387 0.3244 -0.4374
vn -0.3195 0.3585 -0.8772
vn 0.0084 0.8803 -0.4743
vn 0.4512 0.3416 -0.8245
vn 0.5081 0.4016 0.7619
vn 0.1811 0.9103 0.3722
vn 0.1278 0.6536 0.7459
vn -0.2555 0.6536 0.7124
vn -0.3038 0.9101 0.2817
vn -0.6574 0.4253 0.6221
vn 0.1811 0.9103 0.3722
vn 0.5081 0.4016 0.7619
vn 0.8245 0.3416 0.4512
vn 0.8245 0.3416 0.4512
vn 0.4812 0.8756 0.0421
vn 0.1811 0.9103 0.3722
vn 0.4812 0.8756 0.0421
vn 0.8903 0.3416 -0.3011
vn 0.4512 0.3416 -0.8245
vn 0.4512 0.3416 -0.8245
vn 0.0084 0.8803 -0.4743
vn 0.4812 0.8756 0.0421
vn 0.0084 0.8803 -0.4743
vn -0.3195 0.3585 -0.8772
vn -0.8387 0.3244 -0.4374
vn -0.8387 0.3244 -0.4374
vn -0.5745 0.8144 -0.0819
vn 0.0084 0.8803 -0.4743
vn -0.5745 0.8144 -0.0819
vn -0.9107 0.3097 0.2732
vn -0.6574 0.4253 0.6221
vn -0.6574 0.4253 0.6221
vn -0.3038 0.9101 0.2817
vn -0.5745 0.8144 -0.0819
vn 0.8870 0.0000 0.4617
vn 0.9537 0.0000 -0.3007
vn 0.8903 0.3416 -0.3011
vn 0.8903 0.3416 -0.3011
vn 0.8245 0.3416 0.4512
vn 0.8870 0.0000 0.4617
vn 0.2775 0.1005 0.9555
vn -0.4392 0.1005 0.8927
vn -0.4618 -0.0000 0.8870
vn -0.4618 -0.0000 0.8870
vn 0.3007 0.0000 0.9537
vn 0.2775 0.1005 0.9555
vn 0.4618 0.0000 -0.8870
vn -0.3007 0.0000 -0.9537
vn -0.3195 0.3585 -0.8772
vn -0.3195 0.3585 -0.8772
vn 0.4512 0.3416 -0.8245
vn 0.4618 0.0000 -0.8870
vn -0.8870 0.0000 -0.4617
vn -0.9537 -0.0000 0.3007
vn -0.9107 0.3097 0.2732
vn -0.9107 0.3097 0.2732
vn -0.8387 0.3244 -0.4374
vn -0.8870 0.0000 -0.4617
vn -0.0806 0.3816 0.9208
vn 0.2775 0.1005 0.9555
vn 0.5081 0.4016 0.7619
vn 0.5081 0.4016 0.7619
vn 0.1278 0.6536 0.7459
vn -0.0806 0.3816 0.9208
vn 0.1278 0.6536 0.7459
vn 0.1811 0.9103 0.3722
vn -0.3038 0.9101 0.2817
vn -0.3038 0.9101 0.2817
vn -0.2555 0.6536 0.7124
vn 0.1278 0.6536 0.7459
vn -0.2555 0.6536 0.7124
vn -0.6574 0.4253 0.6221
vn -0.4392 0.1005 0.8927
vn -0.4392 0.1005 0.8927
vn -0.0806 0.3816 0.9208
vn -0.2555 0.6536 0.7124
vn 0.1811 0.9103 0.3722
vn 0.4812 0.8756 0.0421
vn 0.0084 0.8803 -0.4743
vn -0.3038 0.9101 0.2817
vn 0.1811 0.9103 0.3722
vn 0.0084 0.8803 -0.4743
vn 0.4885 0.8700 -0.0667
vn -0.2000 0.9651 -0.1690
vn -0.2831 0.9091 0.3056
vn -0.2831 0.9091 0.3056
vn 0.3884 0.8244 0.4116
vn 0.4885 0.8700 -0.0667
vn 0.4884 -0.3416 -0.8030
vn -0.1844 -0.3416 -0.9216
vn -0.1760 0.1910 -0.9657
vn -0.1760 0.1910 -0.9657
vn 0.5032 0.1669 -0.8479
vn 0.4884 -0.3416 -0.8030
vn -0.8030 -0.3416 -0.4884
vn -0.9216 -0.3416 0.1844
vn -0.7736 0.2085 -0.5984
vn -0.4884 -0.3416 0.8030
vn 0.1844 -0.3416 0.9216
vn 0.2238 0.3171 0.9216
vn 0.2238 0.3171 0.9216
vn -0.4446 0.3539 0.8228
vn -0.4884 -0.3416 0.8030
vn 0.9216 -0.3416 -0.1843
vn 0.9438 0.2013 -0.2621
vn 0.9116 0.4110 0.0101
vn 0.8030 -0.3416 0.4884
vn 0.9216 -0.3416 -0.1843
vn 0.9116 0.4110 0.0101
vn 0.8030 -0.3416 0.4884
vn 0.9116 0.4110 0.0101
vn 0.8205 0.2981 0.4878
vn 0.5050 0.7888 -0.3504
vn 0.5118 0.5894 -0.6250
vn -0.1950 0.8110 -0.5516
vn 0.4884 -0.3416 -0.8030
vn 0.9216 -0.3416 -0.1843
vn 0.5335 -0.7588 -0.3736
vn -0.3736 -0.7588 -0.5335
vn -0.8030 -0.3416 -0.4884
vn -0.1844 -0.3416 -0.9216
vn 0.8030 -0.3416 0.4884
vn 0.1844 -0.3416 0.9216
vn 0.3736 -0.7588 0.5335
vn -0.5335 -0.7588 0.3736
vn -0.4884 -0.3416 0.8030
vn -0.9216 -0.3416 0.1844
vn 0.5032 0.1669 -0.8479
vn 0.5118 0.5894 -0.6250
vn 0.9438 0.2013 -0.2621
vn -0.7736 0.2085 -0.5984
vn -0.1855 0.5687 -0.8014
vn -0.1760 0.1910 -0.9657
vn 0.8205 0.2981 0.4878
vn 0.3884 0.8244 0.4116
vn 0.2238 0.3171 0.9216
vn -0.4446 0.3539 0.8228
vn -0.2831 0.9091 0.3056
vn -0.9014 0.3857 0.1965
vn 0.5050 0.7888 -0.3504
vn 0.4885 0.8700 -0.0667
vn 0.9116 0.4110 0.0101
vn -0.8187 0.4761 -0.3210
vn -0.2000 0.9651 -0.1690
vn -0.1950 0.8110 -0.5516
vn 0.5335 -0.7588 -0.3736
vn 0.9216 -0.3416 -0.1843
vn 0.8030 -0.3416 0.4884
vn 0.8030 -0.3416 0.4884
vn 0.3736 -0.7588 0.5335
vn 0.5335 -0.7588 -0.3736
vn 0.3736 -0.7588 0.5335
vn 0.1844 -0.3416 0.9216
vn -0.4884 -0.3416 0.8030
vn -0.4884 -0.3416 0.8030
vn -0.5335 -0.7588 0.3736
vn 0.3736 -0.7588 0.5335
vn -0.5335 -0.7588 0.3736
vn -0.9216 -0.3416 0.1844
vn -0.8030 -0.3416 -0.4884
vn -0.8030 -0.3416 -0.4884
vn -0.3736 -0.7588 -0.5335
vn -0.5335 -0.7588 0.3736
vn -0.3736 -0.7588 -0.5335
vn -0.1844 -0.3416 -0.9216
vn 0.4884 -0.3416 -0.8030
vn 0.4884 -0.3416 -0.8030
vn 0.5335 -0.7588 -0.3736
vn -0.3736 -0.7588 -0.5335
vn 0.4885 0.8700 -0.0667
vn 0.5050 0.7888 -0.3504
vn -0.1950 0.8110 -0.5516
vn -0.1950 0.8110 -0.5516
vn -0.2000 0.9651 -0.1690
vn 0.4885 0.8700 -0.0667
vn -0.2000 0.9651 -0.1690
vn -0.8187 0.4761 -0.3210
vn -0.9014 0.3857 0.1965
vn -0.9014 0.3857 0.1965
vn -0.2831 0.9091 0.3056
vn -0.2000 0.9651 -0.1690
vn -0.2831 0.9091 0.3056
vn -0.4446 0.3539 0.8228
vn 0.2238 0.3171 0.9216
vn 0.2238 0.3171 0.9216
vn 0.3884 0.8244 0.4116
vn -0.2831 0.9091 0.3056
vn 0.3884 0.8244 0.4116
vn 0.8205 0.2981 0.4878
vn 0.9116 0.4110 0.0101
vn 0.9116 0.4110 0.0101
vn 0.4885 0.8700 -0.0667
vn 0.3884 0.8244 0.4116
vn -0.1844 -0.3416 -0.9216
vn -0.8030 -0.3416 -0.4884
vn -0.7736 0.2085 -0.5984
vn -0.7736 0.2085 -0.5984
vn -0.1760 0.1910 -0.9657
vn -0.1844 -0.3416 -0.9216
vn 0.5032 0.1669 -0.8479
vn 0.9438 0.2013 -0.2621
vn 0.9216 -0.3416 -0.1843
vn 0.9216 -0.3416 -0.1843
vn 0.4884 -0.3416 -0.8030
vn 0.5032 0.1669 -0.8479
vn -0.9216 -0.3416 0.1844
vn -0.4884 -0.3416 0.8030
vn -0.4446 0.3539 0.8228
vn -0.4446 0.3539 0.8228
vn -0.9014 0.3857 0.1965
vn -0.9216 -0.3416 0.1844
vn 0.1844 -0.3416 0.9216
vn 0.8030 -0.3416 0.4884
vn 0.8205 0.2981 0.4878
vn 0.8205 0.2981 0.4878
vn 0.2238 0.3171 0.9216
vn 0.1844 -0.3416 0.9216
vn 0.5050 0.7888 -0.3504
vn 0.9116 0.4110 0.0101
vn 0.9438 0.2013 -0.2621
vn 0.9438 0.2013 -0.2621
vn 0.5118 0.5894 -0.6250
vn 0.5050 0.7888 -0.3504
vn -0.1855 0.5687 -0.8014
vn -0.7736 0.2085 -0.5984
vn -0.8187 0.4761 -0.3210
vn -0.8187 0.4761 -0.3210
vn -0.1950 0.8110 -0.5516
vn -0.1855 0.5687 -0.8014
vn 0.5118 0.5894 -0.6250
vn 0.5032 0.1669 -0.8479
vn -0.1760 0.1910 -0.9657
vn -0.1760 0.1910 -0.9657
vn -0.1855 0.5687 -0.8014
vn 0.5118 0.5894 -0.6250
vn -0.9216 -0.3416 0.1844
vn -0.9014 0.3857 0.1965
vn -0.8187 0.4761 -0.3210
vn -0.9216 -0.3416 0.1844
vn -0.8187 0.4761 -0.3210
vn -0.7736 0.2085 -0.5984
vn 0.5118 0.5894 -0.6250
vn -0.1855 0.5687 -0.8014
vn -0.1950 0.8110 -0.5516
vn -0.1792 0.9571 0.2276
vn 0.1199 0.9256 -0.3590
vn -0.8235 0.3874 -0.4146
vn -0.8787 -0.0964 0.4675
vn -0.3084 -0.4298 0.8486
vn -0.4132 0.3534 0.8393
vn 0.6382 -0.4298 0.6388
vn 0.9216 -0.3416 -0.1843
vn 0.8639 0.4491 -0.2278
vn 0.8639 0.4491 -0.2278
vn 0.5057 0.5608 0.6556
vn 0.6382 -0.4298 0.6388
vn 0.4884 -0.3416 -0.8030
vn -0.0401 -0.0479 -0.9980
vn 0.3733 0.3459 -0.8608
vn -0.8787 -0.0964 0.4675
vn -0.8235 0.3874 -0.4146
vn -0.8092 -0.3736 -0.4535
vn 0.0807 -0.9280 0.3638
vn 0.6382 -0.4298 0.6388
vn -0.3084 -0.4298 0.8486
vn 0.4884 -0.3416 -0.8030
vn 0.9216 -0.3416 -0.1843
vn 0.5335 -0.7588 -0.3736
vn -0.4132 0.3534 0.8393
vn 0.5057 0.5608 0.6556
vn -0.1792 0.9571 0.2276
vn 0.1199 0.9256 -0.3590
vn 0.8639 0.4491 -0.2278
vn 0.3733 0.3459 -0.8608
vn -0.8092 -0.3736 -0.4535
vn -0.0401 -0.0479 -0.9980
vn 0.4884 -0.3416 -0.8030
vn 0.4884 -0.3416 -0.8030
vn 0.5335 -0.7588 -0.3736
vn -0.8092 -0.3736 -0.4535
vn 0.5335 -0.7588 -0.3736
vn 0.9216 -0.3416 -0.1843
vn 0.6382 -0.4298 0.6388
vn 0.6382 -0.4298 0.6388
vn 0.0807 -0.9280 0.3638
vn 0.5335 -0.7588 -0.3736
vn 0.0807 -0.9280 0.3638
vn -0.3084 -0.4298 0.8486
vn -0.8787 -0.0964 0.4675
vn -0.8787 -0.0964 0.4675
vn -0.8092 -0.3736 -0.4535
vn 0.0807 -0.9280 0.3638
vn -0.8235 0.3874 -0.4146
vn -0.8787 -0.0964 0.4675
vn -0.4132 0.3534 0.8393
vn -0.4132 0.3534 0.8393
vn -0.1792 0.9571 0.2276
vn -0.8235 0.3874 -0.4146
vn -0.1792 0.9571 0.2276
vn 0.5057 0.5608 0.6556
vn 0.8639 0.4491 -0.2278
vn 0.8639 0.4491 -0.2278
vn 0.1199 0.9256 -0.3590
vn -0.1792 0.9571 0.2276
vn 0.1199 0.9256 -0.3590
vn 0.3733 0.3459 -0.8608
vn -0.0401 -0.0479 -0.9980
vn -0.0401 -0.0479 -0.9980
vn -0.8235 0.3874 -0.4146
vn 0.1199 0.9256 -0.3590
vn -0.3084 -0.4298 0.8486
vn 0.6382 -0.4298 0.6388
vn 0.5057 0.5608 0.6556
vn 0.5057 0.5608 0.6556
vn -0.4132 0.3534 0.8393
vn -0.3084 -0.4298 0.8486
vn 0.9216 -0.3416 -0.1843
vn 0.4884 -0.3416 -0.8030
vn 0.3733 0.3459 -0.8608
vn 0.3733 0.3459 -0.8608
vn 0.8639 0.4491 -0.2278
vn 0.9216 -0.3416 -0.1843
vn -0.8235 0.3874 -0.4146
vn -0.0401 -0.0479 -0.9980
vn -0.8092 -0.3736 -0.4535
# 369 vertex normals

vt 0.7209 0.2703 0.0000
vt 0.6269 0.6582 0.0000
vt 0.6079 0.2569 0.0000
vt 0.8890 0.1375 0.0000
vt 0.9911 0.4770 0.0000
vt 0.8632 0.6054 0.0000
vt 0.8252 0.4179 0.0000
vt 0.8501 0.1704 0.0000
vt 0.9421 0.9194 0.0000
vt 0.7332 0.9184 0.0000
vt 0.7336 0.6656 0.0000
vt 0.9425 0.6666 0.0000
vt 0.4762 0.6431 0.0000
vt 0.4824 0.2582 0.0000
vt 0.5995 0.2644 0.0000
vt 0.6186 0.6507 0.0000
vt 0.6329 0.0112 0.0000
vt 0.8437 0.0701 0.0000
vt 0.8418 0.1533 0.0000
vt 0.7206 0.2718 0.0000
vt 0.6111 0.2262 0.0000
vt 0.8394 0.1791 0.0000
vt 0.8241 0.3999 0.0000
vt 0.7297 0.2690 0.0000
vt 0.8472 0.6174 0.0000
vt 0.8244 0.4203 0.0000
vt 0.1321 0.3846 0.0000
vt 0.3185 0.3963 0.0000
vt 0.3136 0.7432 0.0000
vt 0.1281 0.7332 0.0000
vt 0.1320 0.0462 0.0000
vt 0.3135 0.0487 0.0000
vt 0.3154 0.0823 0.0000
vt 0.1332 0.0795 0.0000
vt 0.4649 0.1871 0.0000
vt 0.4546 0.7570 0.0000
vt 0.4412 0.1853 0.0000
vt 0.3156 0.9690 0.0000
vt 0.1212 0.9514 0.0000
vt 0.1265 0.7506 0.0000
vt 0.3120 0.7600 0.0000
vt 0.0217 0.7359 0.0000
vt 0.0236 0.1658 0.0000
vt 0.0464 0.1661 0.0000
vt 0.1192 0.3709 0.0000
vt 0.1160 0.7395 0.0000
vt 0.1311 0.3563 0.0000
vt 0.1346 0.1057 0.0000
vt 0.3175 0.3699 0.0000
vt 0.1296 0.0248 0.0000
vt 0.3140 0.0268 0.0000
vt 0.1174 0.9719 0.0000
vt 0.3148 0.9907 0.0000
vt 0.3171 0.1086 0.0000
vt 0.3233 0.7515 0.0000
vt 0.3292 0.3849 0.0000
vt 0.6458 0.7979 0.0000
vt 0.5451 0.8920 0.0000
vt 0.4865 0.6924 0.0000
vt 0.5076 0.6940 0.0000
vt 0.6516 0.6961 0.0000
vt 0.6524 0.7830 0.0000
vt 0.6787 0.8874 0.0000
vt 0.5702 0.9841 0.0000
vt 0.5475 0.9008 0.0000
vt 0.6560 0.8042 0.0000
vt 0.4894 0.8912 0.0000
vt 0.4867 0.7126 0.0000
vt 0.5363 0.8909 0.0000
vt 0.4826 0.6852 0.0000
vt 0.6435 0.6806 0.0000
vt 0.4814 0.8928 0.0000
vt 0.3247 0.0440 0.0000
vt 0.3265 0.9756 0.0000
vt 0.3271 0.0940 0.0000
vt 0.4769 0.1879 0.0000
vt 0.4666 0.7577 0.0000
vt 0.1098 0.9490 0.0000
vt 0.1205 0.0454 0.0000
vt 0.1224 0.0944 0.0000
vt 0.0116 0.1656 0.0000
vt 0.0097 0.7358 0.0000
vt 0.9924 0.4940 0.0000
vt 0.4760 0.6589 0.0000
vt 0.6188 0.6664 0.0000
vt 0.8644 0.6194 0.0000
vt 0.6236 0.0142 0.0000
vt 0.6030 0.2279 0.0000
vt 0.8847 0.1226 0.0000
vt 0.6552 0.6932 0.0000
vt 0.4883 0.9058 0.0000
vt 0.5410 0.9046 0.0000
vt 0.6558 0.7887 0.0000
vt 0.6748 0.9084 0.0000
vt 0.5740 0.9981 0.0000
vt 0.7295 0.6501 0.0000
vt 0.9467 0.6512 0.0000
# 97 texture coords

g Rubble_01
s 1
f 25/1/1 21/2/2 19/3/3 
f 1/4/4 12/5/5 18/6/6 
f 18/6/7 9/7/8 5/8/9 
f 1/4/10 18/6/11 5/8/12 
f 2/9/13 14/10/14 22/11/15 
f 22/11/16 6/12/17 2/9/18 
f 4/13/19 13/14/20 20/15/21 
f 20/15/22 8/16/23 4/13/24 
f 11/18/25 16/19/26 26/20/27 
f 3/17/28 11/18/29 26/20/30 
f 3/17/31 26/20/32 7/21/33 
f 15/22/34 24/23/35 10/24/36 
f 5/8/37 15/22/38 16/19/39 
f 6/86/40 17/25/41 18/6/42 
f 7/21/43 19/3/44 20/88/45 
f 8/16/46 21/2/47 22/85/48 
f 9/7/49 23/26/50 24/23/51 
f 10/24/52 25/1/53 26/20/54 
f 23/26/55 9/7/56 18/6/57 
f 18/6/58 17/25/59 23/26/60 
f 17/97/61 6/12/62 22/11/63 
f 22/11/64 21/96/65 17/97/66 
f 21/2/67 8/16/68 20/15/69 
f 20/15/70 19/3/71 21/2/72 
f 19/3/73 7/21/74 26/20/75 
f 26/20/76 25/1/77 19/3/78 
f 12/5/79 2/83/80 6/86/81 
f 6/86/82 18/6/83 12/5/84 
f 5/8/85 16/19/86 11/89/87 
f 11/89/88 1/4/89 5/8/90 
f 14/84/91 4/13/92 8/16/93 
f 8/16/94 22/85/95 14/84/96 
f 13/87/97 3/17/98 7/21/99 
f 7/21/100 20/88/101 13/87/102 
f 15/22/103 5/8/104 9/7/105 
f 9/7/106 24/23/107 15/22/108 
f 24/23/109 23/26/110 25/1/111 
f 25/1/112 10/24/113 24/23/114 
f 10/24/115 26/20/116 16/19/117 
f 16/19/118 15/22/119 10/24/120 
f 23/26/121 17/25/122 21/2/123 
f 25/1/124 23/26/125 21/2/126 
f 53/27/127 55/28/128 51/29/129 
f 51/29/130 49/30/131 53/27/132 
f 27/31/133 40/32/134 48/33/135 
f 48/33/136 31/34/137 27/31/138 
f 39/35/139 44/36/140 32/37/141 
f 43/38/142 41/39/143 50/40/144 
f 50/40/145 34/41/146 43/38/147 
f 37/43/148 46/44/149 54/45/150 
f 29/42/151 37/43/152 54/45/153 
f 29/42/154 54/45/155 33/46/156 
f 35/47/157 45/48/158 56/49/159 
f 27/31/160 37/79/161 38/50/162 
f 28/51/163 39/73/164 40/32/165 
f 29/78/166 41/39/167 42/52/168 
f 30/53/169 43/38/170 44/74/171 
f 31/34/172 45/48/173 46/80/174 
f 32/75/175 47/54/176 48/33/177 
f 33/46/178 49/30/179 50/40/180 
f 34/41/181 51/29/182 52/55/183 
f 35/47/184 53/27/185 54/45/186 
f 36/56/187 55/28/188 56/49/189 
f 38/81/190 37/43/191 29/42/192 
f 29/42/193 42/82/194 38/81/195 
f 42/52/196 41/39/197 43/38/198 
f 43/38/199 30/53/200 42/52/201 
f 30/77/202 44/36/203 39/35/204 
f 39/35/205 28/76/206 30/77/207 
f 28/51/208 40/32/209 27/31/210 
f 27/31/211 38/50/212 28/51/213 
f 53/27/214 35/47/215 56/49/216 
f 56/49/217 55/28/218 53/27/219 
f 55/28/220 36/56/221 52/55/222 
f 52/55/223 51/29/224 55/28/225 
f 51/29/226 34/41/227 50/40/228 
f 50/40/229 49/30/230 51/29/231 
f 49/30/232 33/46/233 54/45/234 
f 54/45/235 53/27/236 49/30/237 
f 40/32/238 39/73/239 32/75/240 
f 32/75/241 48/33/242 40/32/243 
f 31/34/244 46/80/245 37/79/246 
f 37/79/247 27/31/248 31/34/249 
f 44/74/250 43/38/251 34/41/252 
f 34/41/253 52/55/254 44/74/255 
f 41/39/256 29/78/257 33/46/258 
f 33/46/259 50/40/260 41/39/261 
f 35/47/262 54/45/263 46/80/264 
f 46/80/265 45/48/266 35/47/267 
f 47/54/268 32/75/269 36/56/270 
f 36/56/271 56/49/272 47/54/273 
f 45/48/274 31/34/275 48/33/276 
f 48/33/277 47/54/278 45/48/279 
f 44/36/280 52/55/281 36/56/282 
f 44/36/283 36/56/284 32/37/285 
f 45/48/286 47/54/287 56/49/288 
f 70/57/289 61/58/290 62/59/291 
f 57/60/292 66/61/293 60/62/294 
f 65/63/295 67/64/296 71/65/297 
f 71/65/298 69/66/299 65/63/300 
f 59/67/301 63/68/302 72/69/303 
f 57/60/304 62/59/305 64/70/306 
f 58/71/307 65/90/308 66/61/309 
f 59/67/310 67/91/311 68/72/312 
f 60/62/313 69/93/314 70/57/315 
f 61/58/316 71/92/317 72/69/318 
f 64/70/319 63/68/320 59/67/321 
f 59/67/322 68/72/323 64/70/324 
f 68/95/325 67/64/326 65/63/327 
f 65/63/328 58/94/329 68/95/330 
f 58/71/331 66/61/332 57/60/333 
f 57/60/334 64/70/335 58/71/336 
f 62/59/337 57/60/338 60/62/339 
f 60/62/340 70/57/341 62/59/342 
f 70/57/343 69/66/344 71/65/345 
f 71/65/346 61/58/347 70/57/348 
f 61/58/349 72/69/350 63/68/351 
f 63/68/352 62/59/353 61/58/354 
f 66/61/355 65/90/356 69/93/357 
f 69/93/358 60/62/359 66/61/360 
f 67/91/361 59/67/362 72/69/363 
f 72/69/364 71/92/365 67/91/366 
f 62/59/367 63/68/368 64/70/369 
# 123 faces

