# 3ds Max Wavefront OBJ Exporter v0.97b - (c)2007 guruware
# File Created: 11.04.2011 12:28:04

#
# object Capper_Room01
#

v  0.0000 86.2205 -59.0551
v  19.6851 86.2205 -59.0551
v  0.0000 86.2205 -118.1102
v  19.6851 86.2205 -118.1102
v  0.0000 86.2205 -98.4645
v  13.7592 86.2205 -101.2647
v  32.3429 86.2205 -123.2877
v  19.6851 86.2205 -137.7953
v  39.3701 86.2205 -137.7953
v  50.5170 86.2205 -142.0420
v  39.3701 86.2205 -157.4803
v  59.0551 86.2205 -157.4803
v  196.8505 86.2205 -157.4803
v  183.6815 86.2205 -157.4803
v  185.6989 86.2205 -142.0569
v  196.8505 86.2205 -137.7953
v  221.8259 86.2205 -105.9637
v  216.5355 86.2205 -118.1102
v  216.5355 86.2205 -137.7953
v  236.2205 86.2205 -105.9637
v  236.2205 86.2205 -118.1102
v  203.7623 86.2205 -124.0104
v  0.0000 78.7542 -118.1102
v  19.6851 78.7542 -118.1102
v  13.7592 78.7542 -101.2647
v  32.3429 78.7542 -123.2877
v  50.5170 78.7542 -142.0420
v  185.6989 78.7542 -142.0569
v  221.8259 78.7542 -105.9637
v  203.7623 78.7542 -124.0104
v  0.0000 86.2205 118.1102
v  0.0000 86.2205 98.4645
v  13.7591 86.2205 101.2647
v  19.6850 86.2205 118.1102
v  0.0000 86.2205 59.0551
v  19.6850 86.2205 59.0551
v  32.3428 86.2205 123.2877
v  19.6850 86.2205 137.7953
v  50.5170 86.2205 142.0420
v  39.3701 86.2205 137.7953
v  59.0551 86.2205 157.4803
v  39.3701 86.2205 157.4803
v  185.6988 86.2205 142.0570
v  183.6814 86.2205 157.4803
v  196.8504 86.2205 157.4803
v  196.8504 86.2205 137.7953
v  203.7623 86.2205 124.0104
v  216.5355 86.2205 137.7953
v  216.5355 86.2205 118.1103
v  221.8259 86.2205 105.9638
v  236.2205 86.2205 105.9638
v  236.2205 86.2205 118.1103
v  221.1967 86.2205 0.0000
v  236.2205 86.2205 0.0000
v  19.6850 78.7542 118.1102
v  0.0000 78.7542 118.1102
v  13.7591 78.7542 101.2647
v  32.3428 78.7542 123.2877
v  50.5170 78.7542 142.0420
v  185.6988 78.7542 142.0570
v  203.7623 78.7542 124.0104
v  221.8259 78.7542 105.9638
v  221.1967 78.7542 0.0000
# 63 vertices

vn 0.0000 1.0000 -0.0000
vn 0.0000 1.0000 -0.0000
vn 0.0000 1.0000 -0.0000
vn 0.0000 1.0000 -0.0000
vn 0.0000 1.0000 -0.0000
vn 0.0000 1.0000 -0.0000
vn 0.0000 1.0000 -0.0000
vn 0.0000 1.0000 -0.0000
vn 0.0000 1.0000 -0.0000
vn 0.0000 1.0000 -0.0000
vn 0.0000 1.0000 -0.0000
vn 0.0000 1.0000 -0.0000
vn 0.0000 1.0000 -0.0000
vn 0.0000 1.0000 -0.0000
vn 0.0000 1.0000 -0.0000
vn 0.0000 1.0000 -0.0000
vn 0.0000 1.0000 -0.0000
vn 0.0000 1.0000 -0.0000
vn 0.0000 1.0000 -0.0000
vn 0.0000 1.0000 -0.0000
vn 0.0000 1.0000 -0.0000
vn 0.0000 1.0000 -0.0000
vn 0.0000 1.0000 -0.0000
vn 0.0000 1.0000 -0.0000
vn 0.0000 1.0000 -0.0000
vn 0.0000 1.0000 -0.0000
vn 0.0000 1.0000 -0.0000
vn 0.0000 1.0000 -0.0000
vn 0.0000 1.0000 -0.0000
vn 0.0000 1.0000 -0.0000
vn 0.0000 1.0000 -0.0000
vn 0.0000 1.0000 -0.0000
vn 0.0000 1.0000 -0.0000
vn 0.0000 1.0000 -0.0000
vn 0.0000 1.0000 -0.0000
vn 0.0000 1.0000 -0.0000
vn 0.0000 1.0000 -0.0000
vn 0.0000 1.0000 -0.0000
vn 0.0000 1.0000 -0.0000
vn 0.0000 1.0000 -0.0000
vn 0.0000 1.0000 -0.0000
vn 0.0000 1.0000 -0.0000
vn 0.0000 1.0000 -0.0000
vn 0.0000 1.0000 -0.0000
vn 0.0000 1.0000 -0.0000
vn 0.0000 1.0000 -0.0000
vn 0.0000 1.0000 -0.0000
vn 0.0000 1.0000 -0.0000
vn 0.0000 1.0000 -0.0000
vn 0.0000 1.0000 -0.0000
vn 0.0000 1.0000 -0.0000
vn 0.0000 1.0000 -0.0000
vn 0.0000 1.0000 -0.0000
vn 0.0000 1.0000 -0.0000
vn 0.0000 1.0000 -0.0000
vn 0.0000 1.0000 -0.0000
vn 0.0000 1.0000 -0.0000
vn 0.0000 1.0000 -0.0000
vn 0.0000 1.0000 -0.0000
vn 0.0000 1.0000 -0.0000
vn 0.0000 1.0000 -0.0000
vn 0.0000 1.0000 -0.0000
vn 0.0000 1.0000 -0.0000
vn 0.0000 1.0000 -0.0000
vn 0.0000 1.0000 -0.0000
vn 0.0000 1.0000 -0.0000
vn 0.0000 0.0000 -1.0000
vn 0.0000 0.0000 -1.0000
vn 0.0000 0.0000 -1.0000
vn 0.0000 0.0000 -1.0000
vn 0.0000 0.0000 -1.0000
vn 0.0000 0.0000 -1.0000
vn 0.7643 0.0000 0.6449
vn 0.7643 0.0000 0.6449
vn 0.7643 0.0000 0.6449
vn 0.7643 0.0000 0.6449
vn 0.7643 0.0000 0.6449
vn 0.7643 0.0000 0.6449
vn 0.7181 0.0000 0.6959
vn 0.7181 0.0000 0.6959
vn 0.7181 0.0000 0.6959
vn 0.7181 0.0000 0.6959
vn 0.7181 0.0000 0.6959
vn 0.7181 0.0000 0.6959
vn 0.0001 0.0000 1.0000
vn 0.0001 0.0000 1.0000
vn 0.0001 0.0000 1.0000
vn 0.0001 0.0000 1.0000
vn 0.0001 0.0000 1.0000
vn 0.0001 0.0000 1.0000
vn -0.7068 0.0000 0.7074
vn -0.7068 0.0000 0.7074
vn -0.7068 0.0000 0.7074
vn -0.7068 0.0000 0.7074
vn -0.7068 0.0000 0.7074
vn -0.7068 0.0000 0.7074
vn -1.0000 0.0000 -0.0059
vn -1.0000 0.0000 -0.0059
vn -1.0000 0.0000 -0.0059
vn -1.0000 0.0000 -0.0059
vn -1.0000 0.0000 -0.0059
vn -1.0000 0.0000 -0.0059
vn -0.7068 0.0000 0.7074
vn -0.7068 0.0000 0.7074
vn -0.7068 0.0000 0.7074
vn -0.7068 0.0000 0.7074
vn -0.7068 0.0000 0.7074
vn -0.7068 0.0000 0.7074
vn 0.0000 1.0000 -0.0000
vn 0.0000 1.0000 -0.0000
vn 0.0000 1.0000 -0.0000
vn 0.0000 1.0000 -0.0000
vn 0.0000 1.0000 -0.0000
vn 0.0000 1.0000 -0.0000
vn 0.0000 1.0000 -0.0000
vn 0.0000 1.0000 -0.0000
vn 0.0000 1.0000 -0.0000
vn 0.0000 1.0000 -0.0000
vn 0.0000 1.0000 -0.0000
vn 0.0000 1.0000 -0.0000
vn 0.0000 1.0000 -0.0000
vn 0.0000 1.0000 -0.0000
vn 0.0000 1.0000 -0.0000
vn 0.0000 1.0000 -0.0000
vn 0.0000 1.0000 -0.0000
vn 0.0000 1.0000 -0.0000
vn 0.0000 1.0000 -0.0000
vn 0.0000 1.0000 -0.0000
vn 0.0000 1.0000 -0.0000
vn 0.0000 1.0000 -0.0000
vn 0.0000 1.0000 -0.0000
vn 0.0000 1.0000 -0.0000
vn 0.0000 1.0000 -0.0000
vn 0.0000 1.0000 -0.0000
vn 0.0000 1.0000 -0.0000
vn 0.0000 1.0000 -0.0000
vn 0.0000 1.0000 -0.0000
vn 0.0000 1.0000 -0.0000
vn 0.0000 1.0000 -0.0000
vn 0.0000 1.0000 -0.0000
vn 0.0000 1.0000 -0.0000
vn 0.0000 1.0000 -0.0000
vn 0.0000 1.0000 -0.0000
vn 0.0000 1.0000 -0.0000
vn 0.0000 1.0000 -0.0000
vn 0.0000 1.0000 -0.0000
vn 0.0000 1.0000 -0.0000
vn 0.0000 1.0000 -0.0000
vn 0.0000 1.0000 -0.0000
vn 0.0000 1.0000 -0.0000
vn 0.0000 1.0000 -0.0000
vn 0.0000 1.0000 -0.0000
vn 0.0000 1.0000 -0.0000
vn 0.0000 1.0000 -0.0000
vn 0.0000 1.0000 -0.0000
vn 0.0000 1.0000 -0.0000
vn 0.0000 1.0000 -0.0000
vn 0.0000 1.0000 -0.0000
vn 0.0000 1.0000 -0.0000
vn 0.0000 1.0000 -0.0000
vn 0.0000 1.0000 -0.0000
vn 0.0000 1.0000 -0.0000
vn 0.0000 1.0000 -0.0000
vn 0.0000 1.0000 -0.0000
vn 0.0000 1.0000 -0.0000
vn 0.0000 1.0000 -0.0000
vn 0.0000 1.0000 -0.0000
vn 0.0000 1.0000 -0.0000
vn 0.0000 1.0000 -0.0000
vn 0.0000 1.0000 -0.0000
vn 0.0000 1.0000 -0.0000
vn 0.0000 1.0000 -0.0000
vn 0.0000 1.0000 -0.0000
vn 0.0000 1.0000 -0.0000
vn -0.0000 0.0000 1.0000
vn -0.0000 0.0000 1.0000
vn -0.0000 0.0000 1.0000
vn -0.0000 0.0000 1.0000
vn -0.0000 0.0000 1.0000
vn -0.0000 0.0000 1.0000
vn 0.7643 0.0000 -0.6449
vn 0.7643 0.0000 -0.6449
vn 0.7643 0.0000 -0.6449
vn 0.7643 0.0000 -0.6449
vn 0.7643 0.0000 -0.6449
vn 0.7643 0.0000 -0.6449
vn 0.7181 0.0000 -0.6959
vn 0.7181 0.0000 -0.6959
vn 0.7181 0.0000 -0.6959
vn 0.7181 0.0000 -0.6959
vn 0.7181 0.0000 -0.6959
vn 0.7181 0.0000 -0.6959
vn 0.0001 0.0000 -1.0000
vn 0.0001 0.0000 -1.0000
vn 0.0001 0.0000 -1.0000
vn 0.0001 0.0000 -1.0000
vn 0.0001 0.0000 -1.0000
vn 0.0001 0.0000 -1.0000
vn -0.7068 0.0000 -0.7074
vn -0.7068 0.0000 -0.7074
vn -0.7068 0.0000 -0.7074
vn -0.7068 0.0000 -0.7074
vn -0.7068 0.0000 -0.7074
vn -0.7068 0.0000 -0.7074
vn -1.0000 0.0000 0.0059
vn -1.0000 0.0000 0.0059
vn -1.0000 0.0000 0.0059
vn -1.0000 0.0000 0.0059
vn -1.0000 0.0000 0.0059
vn -1.0000 0.0000 0.0059
vn -0.7068 0.0000 -0.7074
vn -0.7068 0.0000 -0.7074
vn -0.7068 0.0000 -0.7074
vn -0.7068 0.0000 -0.7074
vn -0.7068 0.0000 -0.7074
vn -0.7068 0.0000 -0.7074
# 216 vertex normals

vt 0.0000 0.0000 0.0000
vt 1.0000 0.0000 0.0000
vt 0.0000 1.0000 0.0000
vt 1.0000 1.0000 0.0000
vt 0.0000 0.5000 0.0000
vt 1.0000 0.5000 0.0000
vt 1.0000 0.5000 0.0000
vt 1.0000 1.0000 0.0000
vt 1.0000 0.5000 0.0000
vt 1.0000 1.0000 0.0000
vt 1.0000 0.5000 0.0000
vt 1.0000 1.0000 0.0000
vt 1.0000 0.5000 0.0000
vt 1.0000 0.5000 0.0000
vt 0.0000 1.0000 0.0000
vt 0.0000 0.5000 0.0000
vt 1.0000 0.5000 0.0000
vt 1.0000 1.0000 0.0000
vt 1.0000 0.5000 0.0000
vt 1.0000 1.0000 0.0000
vt 1.0000 1.0000 0.0000
vt 1.0000 0.5000 0.0000
vt 1.0000 1.0000 0.0000
vt 1.0000 0.5000 0.0000
vt 1.0000 0.5000 0.0000
vt 1.0000 0.5000 0.0000
vt 1.0000 1.0000 0.0000
vt 0.0000 1.0000 0.0000
vt 1.0000 0.5000 0.0000
vt 1.0000 0.5000 0.0000
vt 1.0000 0.5000 0.0000
vt 1.0000 0.5000 0.0000
vt 1.0000 0.5000 0.0000
vt 1.0000 0.5000 0.0000
vt 1.0000 0.5000 0.0000
vt 1.0000 0.5000 0.0000
vt 0.0000 1.0000 0.0000
vt 0.0000 0.5000 0.0000
vt 1.0000 0.5000 0.0000
vt 1.0000 1.0000 0.0000
vt 0.0000 0.0000 0.0000
vt 1.0000 0.0000 0.0000
vt 1.0000 0.5000 0.0000
vt 1.0000 1.0000 0.0000
vt 1.0000 0.5000 0.0000
vt 1.0000 1.0000 0.0000
vt 1.0000 0.5000 0.0000
vt 1.0000 1.0000 0.0000
vt 1.0000 0.5000 0.0000
vt 1.0000 0.5000 0.0000
vt 0.0000 1.0000 0.0000
vt 0.0000 0.5000 0.0000
vt 1.0000 0.5000 0.0000
vt 1.0000 1.0000 0.0000
vt 1.0000 0.5000 0.0000
vt 1.0000 1.0000 0.0000
vt 1.0000 1.0000 0.0000
vt 1.0000 0.5000 0.0000
vt 1.0000 0.5000 0.0000
vt 1.0000 1.0000 0.0000
vt 1.0000 0.5000 0.0000
vt 1.0000 0.5000 0.0000
vt 1.0000 1.0000 0.0000
vt 0.0000 1.0000 0.0000
vt 1.0000 0.5000 0.0000
vt 1.0000 0.5000 0.0000
vt 1.0000 0.5000 0.0000
vt 1.0000 0.5000 0.0000
vt 1.0000 0.5000 0.0000
vt 1.0000 0.5000 0.0000
vt 1.0000 0.5000 0.0000
vt 1.0000 0.5000 0.0000
# 72 texture coords

g Capper_Room01
s 1
f 5/5/1 6/6/2 4/4/3 
f 4/4/4 3/3/5 5/5/6 
f 1/1/7 2/2/8 6/6/9 
f 6/6/10 5/5/11 1/1/12 
s off
f 4/4/13 7/7/14 8/8/15 
f 7/7/16 10/9/17 9/10/18 
f 9/10/19 10/9/20 12/11/21 
f 12/11/22 11/12/23 9/10/24 
f 12/11/25 10/9/26 15/13/27 
f 15/13/28 14/14/29 12/11/30 
s 1
f 14/16/31 15/17/32 16/18/33 
f 16/18/34 13/15/35 14/16/36 
s off
f 16/18/37 22/26/38 19/21/39 
f 18/20/40 17/19/41 20/22/42 
f 20/22/43 21/23/44 18/20/45 
f 20/22/46 17/19/47 53/24/48 
f 53/24/49 54/25/50 20/22/51 
f 4/4/52 6/6/53 7/7/54 
f 7/7/55 9/10/56 8/8/57 
f 22/26/58 18/20/59 19/21/60 
f 22/26/61 17/19/62 18/20/63 
f 16/18/64 15/17/65 22/26/66 
f 3/3/67 4/4/68 24/27/69 
f 24/27/70 23/28/71 3/3/72 
f 7/7/73 6/6/74 25/29/75 
f 25/29/76 26/30/77 7/7/78 
f 10/9/79 7/7/80 26/30/81 
f 26/30/82 27/31/83 10/9/84 
f 15/13/85 10/9/86 27/31/87 
f 27/31/88 28/32/89 15/13/90 
f 22/26/91 15/17/92 28/33/93 
f 28/33/94 30/34/95 22/26/96 
f 53/24/97 17/19/98 29/35/99 
f 29/35/100 63/36/101 53/24/102 
f 17/19/103 22/26/104 30/34/105 
f 30/34/106 29/35/107 17/19/108 
s 1
f 32/38/109 31/37/110 34/40/111 
f 34/40/112 33/39/113 32/38/114 
f 35/41/115 32/38/116 33/39/117 
f 33/39/118 36/42/119 35/41/120 
s off
f 34/40/121 38/44/122 37/43/123 
f 37/43/124 40/46/125 39/45/126 
f 40/46/127 42/48/128 41/47/129 
f 41/47/130 39/45/131 40/46/132 
f 41/47/133 44/50/134 43/49/135 
f 43/49/136 39/45/137 41/47/138 
s 1
f 44/52/139 45/51/140 46/54/141 
f 46/54/142 43/53/143 44/52/144 
s off
f 46/54/145 48/56/146 47/55/147 
f 49/57/148 52/60/149 51/59/150 
f 51/59/151 50/58/152 49/57/153 
f 51/59/154 54/62/155 53/61/156 
f 53/61/157 50/58/158 51/59/159 
f 34/40/160 37/43/161 33/39/162 
f 37/43/163 38/44/164 40/46/165 
f 47/55/166 48/56/167 49/57/168 
f 47/55/169 49/57/170 50/58/171 
f 46/54/172 47/55/173 43/53/174 
f 31/37/175 56/64/176 55/63/177 
f 55/63/178 34/40/179 31/37/180 
f 37/43/181 58/66/182 57/65/183 
f 57/65/184 33/39/185 37/43/186 
f 39/45/187 59/67/188 58/66/189 
f 58/66/190 37/43/191 39/45/192 
f 43/49/193 60/68/194 59/67/195 
f 59/67/196 39/45/197 43/49/198 
f 47/55/199 61/70/200 60/69/201 
f 60/69/202 43/53/203 47/55/204 
f 53/61/205 63/72/206 62/71/207 
f 62/71/208 50/58/209 53/61/210 
f 50/58/211 62/71/212 61/70/213 
f 61/70/214 47/55/215 50/58/216 
# 72 faces

