# 3ds Max Wavefront OBJ Exporter v0.97b - (c)2007 guruware
# File Created: 11.04.2011 12:17:37

#
# object Floor_Variation_Tiny_01
#

v  19.6849 0.0000 19.6851
v  19.6849 0.0000 0.0000
v  -0.0001 0.0000 19.6851
v  -0.0001 0.0000 0.0000
# 4 vertices

vn 0.0000 1.0000 -0.0000
vn 0.0000 1.0000 -0.0000
vn 0.0000 1.0000 -0.0000
vn 0.0000 1.0000 -0.0000
vn 0.0000 1.0000 -0.0000
vn 0.0000 1.0000 -0.0000
# 6 vertex normals

vt 0.9982 0.6688 0.0000
vt 0.5878 0.6688 0.0000
vt 0.9982 0.0000 0.0000
vt 0.5878 0.0000 0.0000
# 4 texture coords

g Floor_Variation_Tiny_01
s 1
f 3/3/1 1/1/2 2/2/3 
f 2/2/4 4/4/5 3/3/6 
# 2 faces

