# 3ds Max Wavefront OBJ Exporter v0.97b - (c)2007 guruware
# File Created: 11.04.2011 12:05:57

#
# object Tiny_Wall_Variation_02
#

v  13.3723 73.7881 22.8726
v  13.3723 73.7881 19.6825
v  13.3723 59.8783 22.8726
v  13.3723 66.3544 22.8726
v  13.3723 66.3544 19.6825
v  13.3723 59.8783 19.6825
v  13.3723 46.1144 22.8726
v  13.3723 52.5440 22.8726
v  13.3723 52.5440 19.6825
v  13.3723 46.1144 19.6825
v  13.3723 32.1565 22.8726
v  13.3723 38.7265 22.8726
v  13.3723 38.7265 19.6825
v  13.3723 32.1565 19.6825
v  13.3723 18.4019 22.8726
v  13.3723 24.8918 22.8726
v  13.3723 24.8918 19.6825
v  13.3723 18.4019 19.6825
v  13.3723 11.0711 22.8726
v  25.6110 86.3424 22.8726
v  -0.0000 0.0000 19.6850
v  13.3723 4.5502 19.6850
v  13.3723 73.7881 3.1886
v  13.3723 73.7881 -0.0026
v  13.3723 66.3544 -0.0026
v  13.3723 66.3544 3.1881
v  13.3723 59.8783 3.1878
v  13.3723 59.8783 0.0000
v  13.3723 52.5440 0.0000
v  13.3723 52.5440 3.1877
v  13.3723 32.1565 3.1874
v  13.3723 32.1565 0.0000
v  13.3723 24.8918 0.0000
v  13.3723 24.8918 3.1873
v  13.3723 46.1144 3.1876
v  13.3723 46.1144 0.0000
v  13.3723 38.7265 0.0000
v  13.3723 38.7265 3.1875
v  13.3723 18.4019 3.1872
v  13.3723 18.4019 0.0000
v  13.3723 11.0711 0.0000
v  25.6111 86.3424 3.1902
v  6.5836 0.0000 -0.0000
v  -0.0000 0.0000 -0.0000
v  12.4105 80.1330 3.1895
v  12.0167 80.5269 22.8726
v  12.0168 82.5631 3.1896
v  11.6230 82.9568 22.8726
v  10.5659 86.3424 22.8726
v  10.1722 85.9487 3.1899
v  10.5659 82.9568 3.1896
v  10.1722 83.3505 22.8726
v  13.3723 11.0711 3.1872
v  13.3723 11.0711 19.6825
v  13.3723 4.5502 22.8726
v  13.3723 3.5207 3.1871
v  13.3723 3.5207 19.6850
v  11.2692 4.5584 16.3620
v  14.7812 4.8332 15.2450
v  10.4197 4.8880 13.9339
v  13.6092 5.2895 12.1677
v  10.1348 3.4256 12.9931
v  11.1368 3.4131 16.6202
v  14.8541 3.6914 15.5085
v  13.6092 3.6281 11.9445
v  10.7810 5.1334 13.0761
v  10.1348 4.1629 12.9931
v  13.3723 80.1325 22.8726
v  13.3723 80.1325 3.1893
v  6.5836 0.0000 19.6850
v  12.0168 80.5269 3.1896
v  12.4104 80.1330 22.8726
v  11.6231 82.9568 3.1896
v  12.0167 82.5631 22.8726
v  10.1722 85.9487 22.8726
v  10.5659 86.3424 3.1900
v  10.1722 83.3505 3.1897
v  10.5659 82.9568 22.8726
v  11.1368 4.3097 16.6202
v  14.6750 4.8070 15.3311
v  14.6576 4.7962 15.3683
v  14.8541 4.5850 15.4487
v  10.2011 4.7092 13.6479
v  13.6822 5.4540 12.3851
v  10.5131 4.9610 12.9764
v  5.1013 0.0000 19.6850
v  5.2260 2.6890 19.6850
v  6.5059 3.5955 19.6850
v  13.4741 3.6200 0.0209
v  6.4620 3.0594 0.0209
v  7.1342 3.5335 0.0209
v  13.4741 0.0000 0.0209
v  6.5117 2.6542 5.4424
v  13.4741 3.6258 19.6850
v  7.0121 3.5253 5.4412
v  13.4741 3.5646 5.4411
v  6.5117 4.6323 5.4642
v  7.0164 5.1417 11.7575
v  13.4741 5.2011 11.7575
v  13.4741 5.2011 5.4642
v  7.0164 5.1417 5.4642
v  6.5117 4.6323 11.7575
v  13.4737 0.0000 19.6850
v  6.4173 0.0000 0.0209
v  6.5117 0.0000 11.7575
v  5.3236 2.6356 11.8769
v  13.4741 3.7258 11.8756
v  6.5063 3.4798 11.8764
v  7.3403 3.6985 11.8757
v  5.2013 0.0000 11.8765
v  6.5117 0.0000 5.5315
# 111 vertices

vn -1.0000 0.0000 -0.0000
vn -1.0000 0.0000 -0.0000
vn -1.0000 0.0000 -0.0000
vn -1.0000 0.0000 -0.0000
vn -1.0000 0.0000 -0.0000
vn -1.0000 0.0000 -0.0000
vn -1.0000 0.0000 -0.0000
vn -1.0000 0.0000 -0.0000
vn -1.0000 0.0000 -0.0000
vn -1.0000 0.0000 -0.0000
vn -1.0000 0.0000 -0.0000
vn -1.0000 0.0000 -0.0000
vn -1.0000 0.0000 -0.0000
vn -1.0000 0.0000 -0.0000
vn -1.0000 0.0000 -0.0000
vn -1.0000 0.0000 -0.0000
vn -1.0000 0.0000 -0.0000
vn -1.0000 0.0000 -0.0000
vn -1.0000 0.0000 -0.0000
vn -1.0000 0.0000 -0.0000
vn -1.0000 0.0000 -0.0000
vn -1.0000 0.0000 -0.0000
vn -1.0000 0.0000 -0.0000
vn -1.0000 0.0000 -0.0000
vn -1.0000 0.0000 -0.0000
vn -1.0000 0.0000 -0.0000
vn -1.0000 0.0000 -0.0000
vn -1.0000 0.0000 -0.0000
vn -1.0000 0.0000 -0.0000
vn -1.0000 0.0000 0.0000
vn -1.0000 0.0000 0.0000
vn -1.0000 -0.0000 0.0000
vn -1.0000 0.0000 -0.0000
vn -1.0000 0.0000 -0.0000
vn -1.0000 0.0000 -0.0000
vn -1.0000 0.0000 -0.0000
vn -1.0000 0.0000 -0.0000
vn -1.0000 0.0000 -0.0000
vn -1.0000 0.0000 -0.0000
vn -1.0000 0.0000 -0.0000
vn -1.0000 0.0000 -0.0000
vn -1.0000 0.0000 -0.0000
vn -1.0000 0.0000 -0.0000
vn -1.0000 0.0000 -0.0000
vn -1.0000 0.0000 -0.0000
vn -1.0000 0.0000 -0.0000
vn -1.0000 0.0000 -0.0000
vn -1.0000 0.0000 -0.0000
vn -1.0000 0.0000 -0.0000
vn -1.0000 0.0000 -0.0000
vn -1.0000 0.0000 -0.0000
vn -1.0000 0.0000 -0.0000
vn -1.0000 0.0000 -0.0000
vn -1.0000 0.0000 -0.0000
vn -1.0000 0.0000 -0.0000
vn -1.0000 -0.0000 -0.0000
vn -1.0000 0.0000 -0.0000
vn -1.0000 -0.0000 -0.0000
vn -1.0000 0.0000 -0.0000
vn -1.0000 0.0000 -0.0000
vn -1.0000 0.0000 -0.0000
vn -1.0000 0.0000 -0.0000
vn -1.0000 -0.0000 -0.0000
vn -1.0000 0.0000 -0.0000
vn -1.0000 0.0000 -0.0000
vn -1.0000 0.0000 -0.0000
vn -1.0000 0.0000 -0.0000
vn -1.0000 0.0000 -0.0000
vn -1.0000 0.0000 -0.0000
vn -1.0000 0.0000 -0.0000
vn -1.0000 0.0000 -0.0000
vn -1.0000 0.0000 -0.0000
vn -1.0000 0.0000 -0.0000
vn -1.0000 0.0000 -0.0000
vn -1.0000 0.0000 -0.0000
vn -1.0000 0.0000 -0.0000
vn -1.0000 0.0000 -0.0000
vn -1.0000 0.0000 -0.0000
vn -1.0000 0.0000 -0.0000
vn -1.0000 0.0000 -0.0000
vn -1.0000 0.0000 -0.0000
vn -1.0000 -0.0000 0.0000
vn -1.0000 0.0000 -0.0000
vn -1.0000 0.0000 -0.0000
vn -1.0000 0.0000 -0.0000
vn -1.0000 0.0000 -0.0000
vn -1.0000 -0.0000 0.0000
vn -1.0000 0.0000 -0.0000
vn -1.0000 0.0000 -0.0000
vn -1.0000 0.0000 -0.0000
vn -1.0000 0.0000 -0.0000
vn -1.0000 0.0000 -0.0000
vn -1.0000 0.0000 -0.0000
vn -1.0000 0.0000 -0.0000
vn -1.0000 0.0000 -0.0000
vn -1.0000 0.0000 -0.0000
vn -1.0000 0.0000 -0.0000
vn -1.0000 0.0000 -0.0000
vn -1.0000 0.0000 -0.0000
vn -1.0000 0.0000 -0.0000
vn -1.0000 0.0000 -0.0000
vn -1.0000 0.0000 -0.0000
vn -1.0000 0.0000 -0.0000
vn -1.0000 0.0000 -0.0000
vn -1.0000 0.0000 -0.0000
vn -1.0000 0.0000 -0.0000
vn -1.0000 0.0000 -0.0000
vn -1.0000 0.0000 -0.0000
vn -1.0000 0.0000 -0.0000
vn -1.0000 -0.0000 0.0000
vn -1.0000 0.0000 -0.0000
vn -1.0000 0.0000 -0.0000
vn -1.0000 -0.0000 -0.0000
vn -1.0000 -0.0000 -0.0000
vn -1.0000 -0.0000 -0.0000
vn -1.0000 0.0000 -0.0000
vn -1.0000 0.0000 -0.0000
vn -0.0005 -1.0000 -0.0000
vn -0.0005 -1.0000 -0.0000
vn -0.3830 -0.9237 -0.0000
vn -0.3830 -0.9237 -0.0000
vn -0.3830 -0.9238 -0.0000
vn -0.0005 -1.0000 -0.0000
vn -0.9239 -0.3826 -0.0000
vn -0.9239 -0.3826 -0.0000
vn -0.9239 -0.3827 -0.0000
vn -0.9239 -0.3827 -0.0000
vn -0.9239 -0.3827 -0.0000
vn -0.9239 -0.3826 -0.0000
vn -0.9239 -0.3827 -0.0000
vn -0.9239 -0.3827 -0.0000
vn -0.9239 0.3827 -0.0000
vn -0.9239 0.3827 -0.0000
vn -0.9239 0.3827 -0.0000
vn -0.9239 -0.3827 -0.0000
vn -0.3827 0.9239 -0.0000
vn -0.3827 0.9239 -0.0000
vn 0.0000 1.0000 -0.0000
vn 0.0000 1.0000 -0.0000
vn 0.0000 1.0000 -0.0000
vn -0.3827 0.9239 -0.0000
vn -0.3827 -0.9239 -0.0000
vn -0.3827 -0.9239 -0.0000
vn -0.3827 -0.9239 -0.0000
vn -0.3827 -0.9239 -0.0000
vn -0.3827 -0.9239 -0.0000
vn -0.3827 -0.9239 -0.0000
vn -1.0000 -0.0000 -0.0000
vn -1.0000 -0.0000 -0.0000
vn -1.0000 -0.0000 -0.0000
vn -1.0000 -0.0000 -0.0000
vn -1.0000 0.0000 -0.0000
vn -1.0000 -0.0000 -0.0000
vn -1.0000 0.0000 -0.0000
vn -1.0000 -0.0000 -0.0000
vn -1.0000 -0.0000 -0.0000
vn -1.0000 -0.0000 -0.0000
vn -1.0000 0.0000 -0.0000
vn -1.0000 0.0000 -0.0000
vn -1.0000 -0.0000 -0.0000
vn -1.0000 0.0000 -0.0000
vn -1.0000 0.0000 -0.0000
vn 0.0000 1.0000 -0.0000
vn 0.0000 1.0000 -0.0000
vn 0.0000 1.0000 -0.0000
vn 0.0000 1.0000 -0.0000
vn 0.0000 1.0000 -0.0000
vn 0.0000 1.0000 -0.0000
vn 0.1313 0.9077 0.3986
vn -0.1452 0.9798 -0.1374
vn -0.2792 0.9427 -0.1825
vn -0.2792 0.9427 -0.1825
vn -0.0410 0.9667 0.2526
vn 0.1313 0.9077 0.3986
vn -0.4277 0.3373 0.8386
vn -0.9259 0.3675 0.0874
vn -0.4887 -0.0084 0.8724
vn -0.4887 -0.0084 0.8724
vn 0.2815 0.0641 0.9574
vn 0.2990 0.3370 0.8927
vn 0.2990 0.3370 0.8927
vn -0.4277 0.3373 0.8386
vn -0.4887 -0.0084 0.8724
vn -0.8549 0.0855 -0.5117
vn -0.2682 0.1092 -0.9572
vn -0.8845 -0.0000 -0.4666
vn -0.9259 0.3675 0.0874
vn -0.5771 0.5850 -0.5698
vn -0.8549 0.0855 -0.5117
vn -0.9259 0.3675 0.0874
vn -0.8549 0.0855 -0.5117
vn -0.4887 -0.0084 0.8724
vn -0.8549 0.0855 -0.5117
vn -0.8845 -0.0000 -0.4666
vn -0.4887 -0.0084 0.8724
vn -0.5771 0.5850 -0.5698
vn -0.2662 0.5345 -0.8022
vn -0.2682 0.1092 -0.9572
vn -0.8549 0.0855 -0.5117
vn -0.5771 0.5850 -0.5698
vn -0.2682 0.1092 -0.9572
vn -0.0410 0.9667 0.2526
vn -0.2792 0.9427 -0.1825
vn -0.5202 0.8229 0.2285
vn -0.5202 0.8229 0.2285
vn 0.1651 0.8025 0.5734
vn -0.0410 0.9667 0.2526
vn -0.5202 0.8229 0.2285
vn -0.2075 0.8537 0.4776
vn 0.1651 0.8025 0.5734
vn -0.9239 -0.3826 -0.0000
vn -0.3830 -0.9238 -0.0000
vn -0.3830 -0.9237 -0.0000
vn -0.3830 -0.9237 -0.0000
vn -0.9239 -0.3826 -0.0000
vn -0.9239 -0.3826 -0.0000
vn -0.9239 -0.3827 -0.0000
vn -0.3827 -0.9239 -0.0000
vn -0.3827 -0.9239 -0.0000
vn -0.3827 -0.9239 -0.0000
vn -0.9239 -0.3827 -0.0000
vn -0.9239 -0.3827 -0.0000
vn -0.3827 0.9239 -0.0000
vn -0.9239 0.3827 -0.0000
vn -0.9239 0.3827 -0.0000
vn -0.9239 0.3827 -0.0000
vn -0.3827 0.9239 -0.0000
vn -0.3827 0.9239 -0.0000
vn -0.3827 -0.9239 -0.0000
vn -0.9239 -0.3827 -0.0000
vn -0.9239 -0.3827 -0.0000
vn -0.9239 -0.3827 -0.0000
vn -0.3827 -0.9239 -0.0000
vn -0.3827 -0.9239 -0.0000
vn 0.1651 0.8025 0.5734
vn 0.2990 0.3370 0.8927
vn 0.1313 0.9077 0.3986
vn 0.1313 0.9077 0.3986
vn -0.0410 0.9667 0.2526
vn 0.1651 0.8025 0.5734
vn -0.4277 0.3373 0.8386
vn -0.2075 0.8537 0.4776
vn -0.5202 0.8229 0.2285
vn -0.5202 0.8229 0.2285
vn -0.9259 0.3675 0.0874
vn -0.4277 0.3373 0.8386
vn -0.5771 0.5850 -0.5698
vn -0.2792 0.9427 -0.1825
vn -0.1452 0.9798 -0.1374
vn -0.1452 0.9798 -0.1374
vn -0.2662 0.5345 -0.8022
vn -0.5771 0.5850 -0.5698
vn 0.2990 0.3370 0.8927
vn 0.1651 0.8025 0.5734
vn -0.2075 0.8537 0.4776
vn -0.2075 0.8537 0.4776
vn -0.4277 0.3373 0.8386
vn 0.2990 0.3370 0.8927
vn -0.2792 0.9427 -0.1825
vn -0.5771 0.5850 -0.5698
vn -0.9259 0.3675 0.0874
vn -0.9259 0.3675 0.0874
vn -0.5202 0.8229 0.2285
vn -0.2792 0.9427 -0.1825
vn -0.8885 0.4588 0.0049
vn -0.9997 0.0146 0.0171
vn -1.0000 0.0025 0.0058
vn -1.0000 0.0025 0.0058
vn -0.9924 0.1225 0.0134
vn -0.8885 0.4588 0.0049
vn -0.4915 0.8706 0.0239
vn -0.3029 0.9530 -0.0033
vn -0.8885 0.4588 0.0049
vn -0.8885 0.4588 0.0049
vn -0.9924 0.1225 0.0134
vn -0.4915 0.8706 0.0239
vn -0.3128 0.9498 -0.0006
vn -0.1215 0.9926 0.0001
vn -0.4246 0.9053 -0.0138
vn 0.0000 0.0000 -1.0000
vn 0.0000 0.0000 -1.0000
vn 0.0000 0.0000 -1.0000
vn 0.0000 0.0000 -1.0000
vn 0.0000 0.0000 -1.0000
vn 0.0000 0.0000 -1.0000
vn 0.0000 0.0000 -1.0000
vn 0.0000 0.0000 -1.0000
vn 0.0000 0.0000 -1.0000
vn 0.0000 0.0000 1.0000
vn 0.0000 0.0000 1.0000
vn 0.0000 0.0000 1.0000
vn -0.0102 0.9999 0.0062
vn -0.0136 0.9999 0.0102
vn -0.3029 0.9530 -0.0033
vn -0.3029 0.9530 -0.0033
vn -0.4915 0.8706 0.0239
vn -0.0102 0.9999 0.0062
vn 0.0000 0.0000 1.0000
vn 0.0000 0.0000 1.0000
vn 0.0000 0.0000 1.0000
vn -0.8781 0.4782 -0.0142
vn -0.9988 0.0463 -0.0128
vn -0.9988 0.0463 -0.0128
vn -0.9988 0.0463 -0.0128
vn -0.8774 0.4796 -0.0139
vn -0.8781 0.4782 -0.0142
vn -0.4246 0.9053 -0.0138
vn -0.8781 0.4782 -0.0142
vn -0.8774 0.4796 -0.0139
vn -0.8774 0.4796 -0.0139
vn -0.3128 0.9498 -0.0006
vn -0.4246 0.9053 -0.0138
vn -0.0092 1.0000 -0.0000
vn -0.0092 1.0000 -0.0000
vn -0.3890 0.9212 -0.0000
vn -0.3890 0.9212 -0.0000
vn -0.3890 0.9212 -0.0000
vn -0.0092 1.0000 -0.0000
vn -0.9287 0.3708 -0.0000
vn -0.9252 0.3795 -0.0004
vn -1.0000 0.0013 -0.0004
vn -0.9287 0.3708 -0.0000
vn -0.3890 0.9212 -0.0000
vn -0.3890 0.9212 -0.0000
vn -0.3890 0.9212 -0.0000
vn -0.9252 0.3795 -0.0004
vn -0.9287 0.3708 -0.0000
vn -0.0157 0.0137 -0.9998
vn -0.0048 0.0142 -0.9999
vn -0.0129 0.0125 -0.9998
vn -0.0129 0.0125 -0.9998
vn -0.0216 0.0110 -0.9997
vn -0.0157 0.0137 -0.9998
vn -0.0001 0.0141 -0.9999
vn -0.0129 0.0125 -0.9998
vn -0.0048 0.0142 -0.9999
vn -0.0048 0.0142 -0.9999
vn -0.0001 0.0141 -0.9999
vn -0.0001 0.0141 -0.9999
vn -0.0728 0.0124 -0.9973
vn -0.0904 0.0043 -0.9959
vn -0.0386 0.0279 -0.9989
vn -0.0386 0.0279 -0.9989
vn -0.0247 0.0341 -0.9991
vn -0.0728 0.0124 -0.9973
vn -0.9924 0.1225 0.0134
vn -1.0000 -0.0012 -0.0005
vn -1.0000 0.0013 -0.0004
vn -0.1215 0.9926 0.0001
vn -0.3128 0.9498 -0.0006
vn -0.0044 0.9999 0.0128
vn -0.0044 0.9999 0.0128
vn -0.0044 0.9999 0.0128
vn -0.1215 0.9926 0.0001
vn -0.0188 0.0861 0.9961
vn -0.0289 0.0751 0.9968
vn -0.0545 0.0777 0.9955
vn -0.0545 0.0777 0.9955
vn -0.0260 0.1028 0.9944
vn -0.0188 0.0861 0.9961
vn -0.0188 0.0861 0.9961
vn -0.0003 0.0798 0.9968
vn -0.0004 0.0800 0.9968
vn -0.0004 0.0800 0.9968
vn -0.0289 0.0751 0.9968
vn -0.0188 0.0861 0.9961
vn -0.9924 0.1225 0.0134
vn -1.0000 0.0025 0.0058
vn -1.0000 -0.0012 -0.0005
vn 0.0000 0.0000 1.0000
vn 0.0000 0.0000 1.0000
vn 0.0000 0.0000 1.0000
vn -0.9252 0.3795 -0.0004
vn -0.9924 0.1225 0.0134
vn -1.0000 0.0013 -0.0004
# 375 vertex normals

vt 0.6399 0.9105 0.0000
vt 0.6399 0.9923 0.0000
vt 0.5926 0.9105 0.0000
vt 0.6399 0.7313 0.0000
vt 0.6399 0.8147 0.0000
vt 0.5926 0.8147 0.0000
vt 0.5926 0.7313 0.0000
vt 0.6399 0.5540 0.0000
vt 0.6399 0.6368 0.0000
vt 0.5926 0.6368 0.0000
vt 0.5927 0.5540 0.0000
vt 0.6399 0.3741 0.0000
vt 0.6399 0.4588 0.0000
vt 0.5927 0.4588 0.0000
vt 0.5927 0.3741 0.0000
vt 0.6400 0.1969 0.0000
vt 0.6399 0.2805 0.0000
vt 0.5927 0.2805 0.0000
vt 0.5927 0.1969 0.0000
vt 0.3483 0.9177 0.0000
vt 0.2788 0.9153 0.0000
vt 0.2788 0.8086 0.0000
vt 0.8087 0.1867 0.0000
vt 0.8827 0.1866 0.0000
vt 0.3483 0.8054 0.0000
vt 0.3483 0.7313 0.0000
vt 0.3010 0.7313 0.0000
vt 0.3010 0.6524 0.0000
vt 0.3483 0.6458 0.0000
vt 0.3483 0.3741 0.0000
vt 0.3011 0.3741 0.0000
vt 0.3011 0.2805 0.0000
vt 0.3483 0.2805 0.0000
vt 0.3483 0.5465 0.0000
vt 0.3010 0.5347 0.0000
vt 0.3011 0.4588 0.0000
vt 0.3483 0.4588 0.0000
vt 0.3483 0.1969 0.0000
vt 0.3011 0.1969 0.0000
vt 0.3011 0.1024 0.0000
vt 0.3483 0.1024 0.0000
vt 0.3483 0.9923 0.0000
vt 0.5927 0.1024 0.0000
vt 0.9675 0.9904 0.0000
vt 0.9783 0.7791 0.0000
vt 0.9286 0.9904 0.0000
vt 0.9394 0.7791 0.0000
vt 0.9032 0.9904 0.0000
vt 0.8565 0.9904 0.0000
vt 0.8674 0.7791 0.0000
vt 0.9140 0.7791 0.0000
vt 0.6493 0.9904 0.0000
vt 0.6493 0.7791 0.0000
vt 0.5927 0.0184 0.0000
vt 0.3483 0.0051 0.0000
vt 0.6400 0.0184 0.0000
vt 0.6400 0.1025 0.0000
vt 0.5927 0.0052 0.0000
vt 0.8827 0.4533 0.0000
vt 0.9164 0.2037 0.0000
vt 0.8085 0.4533 0.0000
vt 0.9916 0.9904 0.0000
vt 0.9916 0.7791 0.0000
vt 0.9700 0.2145 0.0000
vt 0.9719 0.2746 0.0000
vt 0.9316 0.2164 0.0000
vt 0.9183 0.2734 0.0000
vt 0.9167 0.1917 0.0000
vt 0.9733 0.1920 0.0000
vt 0.9894 0.2092 0.0000
vt 0.9914 0.2722 0.0000
vt 0.8930 0.2729 0.0000
vt 0.8928 0.2140 0.0000
vt 0.9206 0.2251 0.0000
vt 0.9038 0.2147 0.0000
vt 0.9674 0.7791 0.0000
vt 0.9783 0.9904 0.0000
vt 0.9286 0.7791 0.0000
vt 0.9394 0.9904 0.0000
vt 0.8674 0.9904 0.0000
vt 0.8565 0.7791 0.0000
vt 0.9032 0.7791 0.0000
vt 0.9140 0.9904 0.0000
vt 0.9760 0.2106 0.0000
vt 0.9727 0.2725 0.0000
vt 0.9731 0.2721 0.0000
vt 0.9781 0.2742 0.0000
vt 0.9272 0.2119 0.0000
vt 0.9246 0.2735 0.0000
vt 0.9168 0.2258 0.0000
vt 0.8044 0.0042 0.0000
vt 0.8044 0.0888 0.0000
vt 0.7580 0.0886 0.0000
vt 0.7557 0.0043 0.0000
vt 0.7430 0.0049 0.0000
vt 0.9850 0.5078 0.0000
vt 0.7462 0.0893 0.0000
vt 0.7393 0.5601 0.0000
vt 0.6529 0.0067 0.0000
vt 0.8883 0.5072 0.0000
vt 0.8892 0.4604 0.0000
vt 0.7282 0.4593 0.0000
vt 0.9955 0.4623 0.0000
vt 0.9941 0.5018 0.0000
vt 0.6529 0.0930 0.0000
vt 0.9802 0.5136 0.0000
vt 0.9974 0.5252 0.0000
vt 0.9993 0.5599 0.0000
vt 0.8866 0.5137 0.0000
vt 0.7351 0.4345 0.0000
vt 0.7420 0.4409 0.0000
vt 0.9789 0.4321 0.0000
vt 0.7424 0.4559 0.0000
vt 0.9858 0.4248 0.0000
vt 0.9845 0.4513 0.0000
vt 0.9777 0.4578 0.0000
vt 0.8943 0.4535 0.0000
vt 0.7399 0.4593 0.0000
vt 0.7950 0.4589 0.0000
vt 0.8950 0.4385 0.0000
vt 0.7670 0.3305 0.0000
vt 0.7964 0.5597 0.0000
vt 0.7602 0.5601 0.0000
vt 0.7309 0.3308 0.0000
vt 0.7309 0.4318 0.0000
vt 0.6442 0.4318 0.0000
vt 0.6442 0.3308 0.0000
vt 0.7405 0.4318 0.0000
vt 0.7405 0.3308 0.0000
vt 0.7596 0.4593 0.0000
vt 0.6458 0.5601 0.0000
vt 0.7560 0.4334 0.0000
vt 0.6458 0.4593 0.0000
vt 0.8044 0.4319 0.0000
vt 0.7613 0.4526 0.0000
vt 0.7499 0.4373 0.0000
vt 0.7967 0.4372 0.0000
vt 0.7966 0.4542 0.0000
vt 0.8869 0.5605 0.0000
vt 0.7311 0.4532 0.0000
vt 0.6488 0.4543 0.0000
vt 0.6484 0.4352 0.0000
vt 0.8044 0.3319 0.0000
# 143 texture coords

g Tiny_Wall_Variation_02
s 2
f 1/1/1 68/2/2 2/3/3 
f 4/5/4 5/6/5 6/7/6 
f 6/7/7 3/4/8 4/5/9 
f 8/9/10 9/10/11 10/11/12 
f 10/11/13 7/8/14 8/9/15 
f 12/13/16 13/14/17 14/15/18 
f 14/15/19 11/12/20 12/13/21 
f 16/17/22 17/18/23 18/19/24 
f 18/19/25 15/16/26 16/17/27 
f 23/20/28 24/21/29 25/22/30 
f 25/22/31 26/25/32 23/20/33 
f 27/26/34 28/27/35 29/28/36 
f 29/28/37 30/29/38 27/26/39 
f 31/30/40 32/31/41 33/32/42 
f 33/32/43 34/33/44 31/30/45 
f 35/34/46 36/35/47 37/36/48 
f 37/36/49 38/37/50 35/34/51 
f 39/38/52 40/39/53 41/40/54 
f 41/40/55 53/41/56 39/38/57 
f 69/42/58 23/20/59 2/3/60 
f 2/3/61 68/2/62 69/42/63 
f 30/29/64 35/34/65 10/11/66 
f 10/11/67 9/10/68 30/29/69 
f 38/37/70 31/30/71 14/15/72 
f 14/15/73 13/14/74 38/37/75 
f 34/33/76 39/38/77 18/19/78 
f 18/19/79 17/18/80 34/33/81 
f 26/25/82 27/26/83 6/7/84 
f 6/7/85 5/6/86 26/25/87 
f 35/34/88 38/37/89 13/14/90 
f 13/14/91 10/11/92 35/34/93 
f 9/10/94 6/7/95 27/26/96 
f 27/26/97 30/29/98 9/10/99 
f 17/18/100 14/15/101 31/30/102 
f 31/30/103 34/33/104 17/18/105 
f 5/6/106 2/3/107 23/20/108 
f 23/20/109 26/25/110 5/6/111 
f 39/38/112 53/41/113 54/43/114 
f 54/43/115 18/19/116 39/38/117 
s 1
f 69/63/118 68/62/119 72/77/120 
f 72/77/121 45/45/122 69/63/123 
f 71/76/124 46/44/125 74/79/126 
f 74/79/127 47/47/128 71/76/129 
f 77/82/130 52/48/131 75/80/132 
f 75/80/133 50/50/134 77/82/135 
f 76/81/136 49/49/137 20/52/138 
f 20/52/139 42/53/140 76/81/141 
f 78/83/142 51/51/143 73/78/144 
f 73/78/145 48/46/146 78/83/147 
s 2
f 22/54/148 54/43/149 53/41/150 
f 53/41/151 56/55/152 22/54/153 
f 19/57/154 54/43/155 22/54/156 
f 22/54/157 55/56/158 19/57/159 
f 22/54/160 56/55/161 57/58/162 
s 1
f 21/59/163 70/61/164 43/23/165 
f 43/23/166 44/24/167 21/59/168 
f 59/65/169 84/89/170 66/74/171 
f 66/74/172 80/85/173 59/65/174 
f 79/84/175 83/88/176 63/69/177 
f 63/70/178 64/71/179 82/87/180 
f 82/87/181 79/84/182 63/70/183 
f 67/75/184 65/72/185 62/73/186 
f 83/88/187 85/90/188 67/60/189 
f 83/88/190 67/60/191 63/69/192 
f 67/60/193 62/68/194 63/69/195 
f 85/90/196 61/67/197 65/72/198 
f 67/75/199 85/90/200 65/72/201 
f 80/85/202 66/74/203 60/66/204 
f 60/66/205 81/86/206 80/85/207 
f 60/66/208 58/64/209 81/86/210 
f 71/76/211 45/45/212 72/77/213 
f 72/77/214 46/44/215 71/76/216 
f 74/79/217 48/46/218 73/78/219 
f 73/78/220 47/47/221 74/79/222 
f 76/81/223 50/50/224 75/80/225 
f 75/80/226 49/49/227 76/81/228 
f 78/83/229 52/48/230 77/82/231 
f 77/82/232 51/51/233 78/83/234 
f 81/86/235 82/87/236 59/65/237 
f 59/65/238 80/85/239 81/86/240 
f 79/84/241 58/64/242 60/66/243 
f 60/66/244 83/88/245 79/84/246 
f 85/90/247 66/74/248 84/89/249 
f 84/89/250 61/67/251 85/90/252 
f 82/87/253 81/86/254 58/64/255 
f 58/64/256 79/84/257 82/87/258 
f 66/74/259 85/90/260 83/88/261 
f 83/88/262 60/66/263 66/74/264 
f 90/94/265 104/91/266 111/92/267 
f 111/92/268 93/93/269 90/94/270 
f 95/97/271 91/95/272 90/94/273 
f 90/94/274 93/93/275 95/97/276 
s 8
f 88/98/277 109/102/278 108/118/279 
s 2
f 91/96/280 89/100/281 92/101/282 
f 104/103/283 91/96/284 92/101/285 
f 104/103/286 90/104/287 91/96/288 
f 88/106/289 87/107/290 86/108/291 
s 1
f 96/105/292 89/99/293 91/95/294 
f 91/95/295 95/97/296 96/105/297 
s 2
f 94/109/298 88/106/299 86/108/300 
s 8
f 106/130/301 110/119/302 86/122/303 
f 86/122/304 87/123/305 106/130/306 
f 108/118/307 106/130/308 87/123/309 
f 87/123/310 88/98/311 108/118/312 
s 1
f 99/126/313 100/127/314 101/124/315 
f 101/124/316 98/125/317 99/126/318 
f 102/128/319 97/129/320 108/132/321 
f 102/128/322 98/125/323 101/124/324 
f 101/124/325 97/129/326 102/128/327 
s 2
f 97/115/328 101/116/329 95/112/330 
f 95/112/331 93/114/332 97/115/333 
f 96/120/334 95/112/335 101/116/336 
f 101/116/337 100/117/338 96/120/339 
f 105/137/340 110/138/341 106/135/342 
f 106/135/343 108/136/344 105/137/345 
s 1
f 93/121/346 105/134/347 108/132/348 
s 8
f 109/102/349 88/98/350 94/131/351 
f 94/131/352 107/133/353 109/102/354 
s 4
f 109/140/355 98/110/356 102/111/357 
f 102/111/358 108/113/359 109/140/360 
f 109/140/361 107/141/362 99/142/363 
f 99/142/364 98/110/365 109/140/366 
s 1
f 93/121/367 111/143/368 105/134/369 
s 2
f 103/139/370 94/109/371 86/108/372 
s 1
f 97/129/373 93/121/374 108/132/375 
# 125 faces

